<?xml version="1.0" standalone="no"?>
<!DOCTYPE svg PUBLIC "-//W3C//DTD SVG 20010904//EN"
 "http://www.w3.org/TR/2001/REC-SVG-20010904/DTD/svg10.dtd">
<svg version="1.0" xmlns="http://www.w3.org/2000/svg"
 width="500.000000pt" height="500.000000pt" viewBox="0 0 500.000000 500.000000"
 preserveAspectRatio="xMidYMid meet">
<metadata>
Created by potrace 1.14, written by Peter Selinger 2001-2017
</metadata>
<g transform="translate(0.000000,500.000000) scale(0.100000,-0.100000)"
fill="#000000" stroke="none">
<path d="M2467 3186 c-17 -14 -17 -15 1 -28 18 -13 17 -17 -16 -125 -27 -87
-40 -114 -58 -124 -13 -7 -24 -18 -24 -26 0 -10 28 -13 128 -13 141 0 152 4
171 59 15 46 14 61 -4 61 -8 0 -15 -4 -15 -10 0 -5 -4 -10 -10 -10 -5 0 -20
-11 -33 -24 -21 -21 -48 -26 -99 -17 -3 0 1 19 9 41 17 42 43 54 43 21 0 -54
55 -18 71 45 8 32 19 48 34 54 22 8 62 87 50 99 -4 3 -57 7 -118 9 -85 2 -116
-1 -130 -12z m183 -68 c0 -4 -7 -8 -15 -8 -8 0 -24 -9 -35 -20 -17 -17 -50
-28 -50 -16 0 20 25 66 38 69 20 4 62 -13 62 -25z"/>
<path d="M2741 3078 c-12 -4 -21 -12 -21 -18 0 -5 0 -13 0 -17 0 -5 6 -8 13
-8 8 0 13 -27 15 -92 2 -60 7 -93 14 -93 32 0 164 127 180 172 9 26 8 33 -7
45 -24 17 -28 17 -56 -6 -20 -17 -22 -23 -12 -39 10 -16 8 -23 -10 -40 l-22
-21 -1 38 c-2 72 -11 92 -44 89 -16 -1 -38 -6 -49 -10z"/>
<path d="M1634 3055 c-21 -21 -23 -29 -14 -40 29 -35 107 5 84 43 -17 27 -41
26 -70 -3z"/>
<path d="M2078 3060 c-67 -36 -89 -98 -48 -135 14 -13 17 -22 10 -29 -5 -5
-10 -17 -10 -25 0 -8 -8 -23 -17 -33 -27 -30 -26 -56 3 -75 34 -22 110 -21
154 2 98 51 97 121 -3 135 l-42 5 42 24 c26 15 47 36 54 55 7 17 19 39 27 49
14 15 13 17 -4 18 -18 0 -18 1 1 9 14 6 15 9 5 10 -8 0 -42 3 -75 5 -47 4 -68
0 -97 -15z m57 -41 c11 -16 -4 -59 -20 -59 -15 0 -20 26 -9 54 7 18 20 21 29
5z m25 -195 c13 -4 13 -6 0 -14 -31 -20 -101 -5 -86 18 6 10 53 7 86 -4z"/>
<path d="M1895 3038 c-11 -7 -33 -13 -50 -13 -40 -2 -105 -34 -105 -51 0 -8 7
-14 16 -14 13 0 15 -13 12 -87 l-3 -88 25 4 c33 4 54 22 58 46 8 56 25 115 34
115 5 0 6 -4 3 -10 -11 -18 -7 -110 5 -125 20 -24 82 13 100 59 13 36 13 36
-9 36 -17 0 -19 6 -15 51 7 79 -20 107 -71 77z"/>
<path d="M3030 3030 c-96 -51 -134 -141 -78 -187 35 -30 112 -20 164 22 39 31
25 46 -26 29 -31 -11 -46 -11 -61 -3 -26 13 -20 19 23 26 49 7 95 31 113 60
15 22 15 26 0 49 -12 19 -24 24 -58 24 -23 -1 -58 -9 -77 -20z m61 -44 c-13
-15 -51 -28 -51 -17 0 14 24 31 43 31 16 0 17 -3 8 -14z"/>
<path d="M3206 3004 c-18 -13 -21 -34 -6 -34 18 0 10 -22 -30 -87 -23 -35 -38
-68 -35 -73 3 -6 19 -10 35 -10 23 0 35 8 54 38 39 60 71 86 94 73 14 -7 24
-7 37 3 25 18 55 9 54 -18 0 -11 -8 -50 -17 -86 l-17 -65 -41 2 c-51 4 -90
-27 -74 -57 7 -14 17 -17 42 -13 38 6 147 67 228 127 30 23 58 43 62 46 4 4
11 20 14 38 5 27 3 33 -17 40 -30 11 -72 -22 -63 -50 4 -13 -2 -26 -17 -39
-35 -30 -38 -23 -21 40 19 72 10 89 -47 88 -23 0 -45 6 -55 16 -13 12 -23 14
-42 7 -33 -13 -34 -13 -28 5 4 9 0 15 -7 16 -8 0 -30 2 -51 3 -20 1 -43 -3
-52 -10z"/>
<path d="M1507 2992 c-10 -10 -17 -24 -17 -30 0 -6 -12 -24 -26 -41 -26 -31
-25 -55 1 -44 11 4 15 -2 15 -23 0 -26 -1 -26 -13 -10 -12 16 -14 16 -14 3 0
-9 6 -18 14 -21 8 -3 13 -22 13 -49 0 -31 6 -49 20 -62 19 -17 21 -17 53 0 19
10 39 32 48 54 l16 36 16 -39 c13 -28 21 -37 33 -32 17 7 69 -40 55 -48 -4 -3
-14 6 -21 19 -14 26 -36 35 -27 11 4 -10 -3 -13 -27 -12 -18 1 -38 6 -46 11
-8 5 -11 4 -7 -2 4 -6 -4 -14 -18 -17 -33 -8 -32 -21 2 -24 15 -1 29 -6 32
-11 3 -4 18 -11 34 -15 20 -5 27 -3 27 9 0 9 -9 15 -25 15 -16 0 -25 6 -25 16
0 12 4 14 13 7 6 -6 22 -9 34 -8 12 1 25 -5 27 -12 3 -8 1 -11 -4 -8 -6 3 -7
-1 -4 -9 3 -9 10 -13 15 -10 5 3 9 0 9 -6 0 -6 5 -8 10 -5 6 3 10 1 10 -5 0
-7 -12 -8 -37 -3 -21 4 -55 7 -75 6 -28 -2 -38 1 -38 12 0 8 -5 15 -11 15 -6
0 -9 -6 -6 -14 3 -8 3 -17 0 -20 -3 -3 -5 -39 -4 -80 l2 -73 -92 -2 c-82 -2
-159 -19 -159 -36 0 -3 8 -2 18 3 9 5 35 7 57 5 22 -2 61 -5 87 -6 27 -1 48
-5 48 -8 0 -3 10 -5 23 -4 12 1 40 -6 62 -15 l40 -18 -27 -7 c-16 -4 -25 -11
-22 -16 3 -5 0 -9 -6 -9 -6 0 -8 -5 -5 -11 4 -6 9 -8 12 -5 3 2 16 -7 28 -22
21 -24 23 -25 22 -7 -1 11 -9 23 -17 28 -11 5 -9 6 6 4 11 -3 29 2 40 11 17
13 16 14 -24 9 -24 -3 -40 -1 -36 4 3 5 12 9 20 9 8 0 14 4 14 9 0 5 17 8 38
6 29 -3 24 0 -26 16 -34 11 -60 24 -57 30 4 5 10 7 15 4 4 -3 10 2 14 10 7 20
52 0 59 -27 3 -11 10 -17 16 -14 7 5 7 13 -1 25 -7 11 -8 26 -3 37 5 11 7 24
6 29 -2 6 1 7 5 2 11 -10 13 -47 2 -41 -11 7 -10 -10 1 -22 16 -16 17 -97 2
-102 -8 -3 -11 0 -7 7 9 15 5 14 -32 -4 -20 -10 -29 -21 -25 -30 3 -8 9 -13
13 -10 5 3 11 -4 15 -15 3 -11 11 -20 16 -20 16 0 10 -48 -7 -54 -12 -5 -14
-15 -9 -53 3 -25 10 -54 15 -63 5 -10 6 -20 3 -24 -3 -3 -1 -6 5 -6 7 0 12 -8
12 -18 0 -15 -8 -19 -40 -19 -24 0 -37 4 -33 10 4 6 1 7 -8 1 -8 -5 -39 -10
-69 -12 -94 -5 -68 -12 48 -12 l112 0 20 -41 21 -40 -23 15 c-29 19 -112 24
-131 8 -8 -7 -26 -13 -41 -14 l-26 -2 31 -27 c27 -23 36 -25 67 -18 20 4 38 7
41 7 3 -1 13 1 21 5 48 18 70 14 88 -15 l17 -29 106 2 c58 1 110 -1 117 -4 6
-4 13 -3 17 2 3 6 11 8 18 5 19 -7 148 -10 152 -4 5 9 80 4 95 -5 9 -5 11 -4
6 3 -4 7 -2 12 3 12 6 0 11 -6 11 -12 0 -10 2 -10 9 0 5 9 47 14 140 18 73 2
136 5 139 5 20 3 32 -2 27 -11 -3 -6 1 -7 9 -4 9 3 13 10 10 15 -3 5 1 9 8 10
7 1 24 2 38 4 14 2 62 5 107 8 45 3 86 8 90 10 5 3 15 2 23 -3 9 -5 19 -5 27
2 9 7 13 7 13 0 0 -6 15 -5 43 3 40 12 192 31 210 27 4 -1 7 2 7 7 0 5 13 4
30 -2 31 -12 54 -2 30 13 -8 6 -10 10 -5 10 6 0 3 4 -5 10 -9 6 -17 5 -21 -2
-12 -20 -39 0 -61 47 -24 50 -30 53 -133 70 -16 3 -41 8 -55 10 -28 6 -94 14
-159 20 -50 4 -103 24 -96 35 3 4 -2 11 -11 14 -8 3 -12 2 -9 -4 3 -6 2 -10
-4 -10 -5 0 -12 6 -14 13 -4 9 -8 8 -16 -3 -10 -13 -15 -8 -12 13 0 4 -4 7 -9
7 -6 0 -10 -5 -10 -11 0 -5 -5 -7 -11 -4 -6 5 -4 12 8 20 10 7 20 9 23 5 3 -5
22 -10 43 -12 34 -2 42 -8 38 -30 0 -5 5 -8 12 -8 8 0 14 7 14 15 0 8 -4 12
-9 9 -10 -6 -9 4 2 31 7 18 8 18 15 -7 4 -16 5 -34 2 -42 -4 -10 5 -15 34 -18
38 -3 52 5 27 15 -8 4 -7 6 3 6 9 1 19 -6 23 -14 7 -19 26 -20 26 -1 0 9 9 13
25 12 20 -3 23 0 15 14 -7 13 -5 16 13 15 17 -1 23 -9 25 -33 2 -18 7 -32 12
-32 5 0 7 14 5 31 -4 31 -4 31 15 14 15 -14 17 -21 9 -32 -9 -10 -4 -13 27
-13 22 0 35 4 29 8 -5 4 -10 14 -10 22 0 8 -9 15 -20 15 -33 0 -47 28 -19 39
11 4 15 2 11 -8 -4 -10 4 -13 31 -10 20 1 46 4 57 7 21 5 45 -9 45 -24 0 -5
-18 -9 -40 -9 -33 0 -40 -3 -40 -20 0 -16 7 -20 35 -20 22 0 38 6 41 15 4 8
11 15 16 15 6 0 5 -6 -2 -15 -10 -12 -10 -15 3 -15 13 0 39 -45 44 -79 3 -20
30 -45 36 -34 4 6 -3 27 -14 48 -17 32 -18 37 -4 31 9 -3 13 -2 10 4 -3 6 -13
10 -21 10 -8 0 -14 4 -14 9 0 5 -3 18 -6 28 -5 17 -5 17 6 0 6 -9 16 -15 21
-12 5 4 6 12 2 18 -15 24 -11 38 10 37 39 -4 53 2 27 10 -45 15 -60 11 -60
-12 -1 -22 -1 -22 -11 -4 -9 14 -8 20 1 26 9 5 9 9 1 14 -14 9 -14 26 -1 26 6
0 9 -6 8 -12 -2 -7 6 -13 17 -13 11 -1 26 -4 33 -8 16 -11 15 1 -2 19 -17 16
-30 19 -21 4 3 -5 1 -10 -5 -10 -7 0 -10 7 -6 15 3 8 0 15 -7 15 -7 0 -23 3
-37 6 -20 4 -22 3 -10 -5 9 -7 10 -11 3 -11 -12 0 -28 19 -22 24 2 2 17 6 32
10 21 5 27 4 21 -5 -4 -7 -3 -9 4 -5 6 3 13 2 17 -4 3 -5 15 -10 26 -10 13 0
18 -4 13 -12 -5 -8 -2 -9 9 -5 9 3 19 2 22 -3 4 -6 1 -10 -4 -10 -6 0 -11 -3
-11 -8 0 -12 94 -8 108 5 20 19 15 22 -40 25 -38 2 -52 7 -50 16 1 8 -2 10 -8
7 -14 -9 -71 15 -64 26 3 5 0 9 -5 9 -6 0 -10 3 -10 8 3 18 -2 32 -11 32 -5 0
-10 -10 -10 -22 0 -18 -6 -23 -25 -24 -20 -2 -23 1 -15 11 8 10 7 15 -2 21 -7
4 -10 4 -6 -1 24 -26 -58 -48 -92 -24 -12 8 -9 9 13 5 15 -4 27 -2 27 3 0 13
-55 21 -92 14 -18 -3 -30 -2 -26 2 4 4 -3 16 -16 26 -26 20 -46 25 -46 10 0
-5 -3 -16 -6 -25 -5 -12 0 -16 22 -16 16 0 42 -7 57 -15 15 -8 25 -10 22 -6
-3 5 2 11 10 15 9 3 15 0 15 -9 0 -8 6 -15 14 -15 8 0 13 -11 13 -27 0 -16 -2
-22 -4 -15 -3 6 -9 9 -14 6 -6 -4 -6 -10 0 -18 8 -9 7 -13 -3 -13 -9 0 -13 8
-10 22 3 19 0 22 -21 17 -39 -7 -59 -62 -23 -62 6 0 5 6 -2 16 -8 8 -9 14 -4
13 21 -4 28 2 14 11 -13 8 -12 10 2 10 13 0 17 -6 15 -22 -6 -35 -28 -42 -72
-23 -22 10 -44 17 -48 16 -5 -1 -6 3 -2 9 3 5 -1 10 -10 10 -10 0 -13 5 -9 12
4 6 3 8 -4 4 -6 -3 -13 -2 -17 3 -3 6 -19 4 -40 -5 -44 -18 -49 -18 -40 4 5
13 3 14 -6 5 -8 -8 -19 -9 -37 -2 -14 5 -40 10 -59 11 -18 1 -33 4 -33 8 0 3
-49 6 -110 6 -65 -1 -112 3 -114 9 -3 6 -5 4 -5 -3 -1 -10 -4 -10 -16 2 -17
17 -20 30 -5 21 6 -3 10 2 10 12 0 13 3 14 8 5 10 -15 54 -10 60 6 5 15 160
16 182 2 9 -5 19 -5 27 2 24 20 13 30 -26 24 -30 -4 -41 -1 -45 10 -8 22 -9
22 17 19 12 -1 36 -3 54 -4 26 -1 30 -4 26 -21 -3 -12 0 -20 6 -20 7 0 10 4 7
8 -2 4 -2 13 2 19 11 17 125 -5 118 -23 -3 -7 0 -11 7 -8 23 9 85 123 79 147
-5 18 20 5 28 -15 7 -19 9 -19 9 -5 1 10 4 16 9 13 4 -2 18 2 32 10 l25 15
-27 -6 c-16 -3 -28 -1 -28 5 0 5 7 10 15 10 8 0 15 5 15 10 0 12 -15 13 -59 4
-17 -4 -28 -11 -24 -17 3 -6 1 -7 -5 -3 -11 7 -19 9 -74 21 -13 2 -35 7 -50
11 -16 3 -28 10 -28 16 0 6 6 8 14 5 10 -4 12 0 8 16 -4 18 -3 20 9 11 20 -14
42 -12 46 6 4 13 3 13 -6 0 -6 -8 -11 -10 -11 -5 0 6 -8 11 -17 12 -10 1 -31
4 -47 8 -26 5 -28 4 -16 -10 11 -13 15 -13 21 -3 14 22 10 2 -6 -28 -8 -16
-15 -24 -15 -18 0 7 -18 10 -52 7 -43 -3 -51 -2 -40 8 6 7 12 18 12 23 -1 6
-9 1 -19 -11 -12 -15 -22 -18 -32 -12 -9 5 -10 9 -2 9 14 0 43 28 43 41 0 6
-7 3 -16 -5 -8 -9 -20 -14 -25 -11 -5 4 -9 1 -9 -4 0 -6 -7 -11 -16 -11 -8 0
-13 -4 -10 -9 3 -5 -1 -14 -9 -21 -8 -7 -15 -9 -15 -4 0 4 -5 3 -11 -3 -6 -6
-17 -9 -23 -7 -16 6 -71 -14 -62 -23 3 -3 1 -12 -5 -20 -6 -7 -8 -13 -4 -13 4
0 2 -7 -5 -15 -7 -9 -8 -15 -2 -15 10 0 26 29 24 43 -1 4 8 11 20 16 33 12
100 21 96 13 -2 -4 -10 -20 -18 -37 -30 -59 -61 -84 -110 -86 -61 -2 -80 -8
-80 -25 0 -16 -13 -15 -90 6 -25 7 -50 16 -56 21 -6 5 -25 6 -43 3 -26 -6 -31
-4 -31 14 0 11 -7 25 -15 32 -10 9 -15 9 -15 1 0 -6 4 -11 8 -11 4 0 8 -9 9
-20 1 -16 -3 -20 -16 -15 -18 6 -96 15 -142 17 -19 1 -26 6 -24 17 2 9 4 29 4
45 1 24 3 26 16 16 8 -6 20 -10 27 -8 7 3 27 -1 43 -7 17 -7 36 -10 43 -8 6 3
12 0 12 -7 0 -6 -3 -9 -7 -7 -5 3 -14 -1 -20 -9 -8 -8 -9 -15 -3 -19 6 -3 10
-1 10 6 0 7 6 5 13 -6 13 -17 14 -16 13 6 -1 20 4 24 29 25 44 0 60 -14 39
-37 -17 -18 -16 -19 14 -3 25 12 36 13 53 4 23 -13 51 1 30 14 -6 4 -11 2 -11
-4 0 -7 -7 -7 -22 1 l-22 12 27 23 c15 13 27 26 27 29 0 12 -26 -2 -48 -28
-13 -15 -28 -24 -34 -21 -5 4 2 14 16 23 14 10 23 21 20 24 -4 4 -14 1 -22 -6
-13 -10 -15 -9 -8 8 19 46 10 54 -78 70 -16 3 -54 15 -84 25 -31 11 -58 20
-59 20 -9 0 -1 21 13 34 12 12 12 16 2 17 -59 4 -72 3 -76 -11 -5 -13 -3 -13
11 -1 11 8 17 9 17 2 0 -14 -54 -41 -66 -33 -5 4 -14 16 -20 27 -6 11 -16 20
-22 20 -22 0 -20 11 2 13 16 1 25 -5 29 -18 3 -11 12 -20 21 -20 23 0 20 8
-15 41 -19 18 -28 33 -23 41 6 10 5 10 -8 0 -13 -10 -17 -10 -21 0 -4 10 -8
10 -16 -2 -7 -10 -11 -11 -11 -3 0 8 -12 5 -35 -8 -30 -18 -38 -19 -52 -8 -15
12 -16 12 -9 -6 5 -15 4 -17 -5 -8 -17 17 -1 37 17 22 11 -9 18 -9 26 -1 9 9
9 12 -1 12 -7 0 -9 5 -5 12 4 6 3 8 -4 4 -18 -11 -25 14 -12 39 15 28 7 57
-14 49 -12 -5 -16 7 -18 68 -2 59 -6 72 -18 69 -8 -2 -20 -4 -26 -5 -6 -1 -23
-10 -37 -19 -25 -16 -78 -15 -75 2 5 42 -17 54 -45 23z m114 -79 c0 -5 2 -30
3 -56 l3 -48 -31 4 c-24 2 -32 9 -34 28 l-4 24 22 -23 c12 -13 25 -21 28 -17
3 3 -6 16 -21 29 -26 23 -34 46 -20 59 9 9 53 9 54 0z m191 -190 c-13 -3 -19
-9 -16 -15 5 -7 2 -8 -5 -4 -8 5 -11 2 -9 -9 4 -21 -28 -29 -36 -9 -6 16 39
44 69 42 17 -1 17 -1 -3 -5z m8 -58 c0 -9 -6 -12 -15 -9 -8 4 -15 1 -15 -5 0
-14 -27 -15 -35 -1 -3 5 0 7 8 4 8 -3 20 2 27 11 16 19 30 19 30 0z m34 -1 c3
-8 2 -12 -4 -9 -6 3 -10 10 -10 16 0 14 7 11 14 -7z m50 -33 c-9 -10 -34 -9
-41 1 -4 7 -1 8 7 3 10 -6 12 -4 7 8 -5 14 -3 15 13 5 10 -7 17 -14 14 -17z
m80 7 c-5 -7 -7 -24 -5 -38 2 -24 2 -24 -12 -5 -12 16 -18 17 -38 8 -22 -11
-22 -12 -4 -13 20 -1 55 -22 55 -34 0 -10 -38 -7 -45 4 -4 6 -11 8 -16 5 -5
-4 -9 -2 -9 4 0 5 -7 16 -15 25 -14 13 -11 16 27 28 24 6 47 18 51 26 5 7 11
11 14 8 3 -2 1 -11 -3 -18z m-159 -8 c3 -5 1 -10 -4 -10 -6 0 -11 5 -11 10 0
6 2 10 4 10 3 0 8 -4 11 -10z m-195 -10 c0 -5 -5 -10 -11 -10 -5 0 -7 5 -4 10
3 6 8 10 11 10 2 0 4 -4 4 -10z m83 -13 c4 3 7 1 7 -6 0 -8 -7 -11 -15 -7 -8
3 -21 -1 -29 -9 -20 -20 -27 -7 -8 15 11 13 20 16 27 10 7 -6 15 -7 18 -3z
m140 -4 c-5 -12 -3 -14 7 -8 9 5 11 4 6 -3 -5 -9 -13 -9 -28 -1 -11 6 -32 8
-46 4 -18 -4 -24 -3 -17 4 6 5 24 11 40 14 17 2 33 5 37 6 4 0 4 -6 1 -16z
m-206 -5 c-1 -34 4 -48 19 -48 8 0 12 -5 9 -11 -4 -6 2 -5 14 3 12 7 21 16 21
20 0 5 5 8 10 8 18 0 10 -32 -9 -37 -12 -3 -17 -11 -14 -19 6 -17 -28 -19 -43
-4 -7 7 -11 6 -11 -5 0 -8 4 -15 9 -15 4 0 8 -4 8 -8 0 -14 -38 -11 -50 3 -14
17 -9 61 7 58 6 -1 10 4 9 12 -3 22 -16 31 -16 12 0 -9 -4 -17 -8 -17 -11 0
-13 40 -1 41 5 1 13 2 18 3 5 0 13 4 17 9 10 10 12 9 11 -5z m178 -18 c3 -5
-1 -10 -10 -10 -9 0 -13 5 -10 10 3 6 8 10 10 10 2 0 7 -4 10 -10z m81 -46 c4
-46 11 -54 20 -20 4 17 12 25 23 24 23 -4 28 -14 23 -53 -3 -29 -8 -35 -28
-35 -13 0 -24 -3 -24 -7 0 -13 -46 -31 -48 -19 -1 6 -3 23 -6 39 -2 15 -1 27
4 27 4 0 6 11 5 25 -2 14 1 25 6 25 5 0 9 7 9 16 0 8 -4 12 -10 9 -11 -7 -14
8 -3 19 12 12 27 -13 29 -50z m-125 23 c-16 -16 -13 -37 3 -31 23 9 31 -18 11
-33 -24 -17 -35 -2 -33 49 1 27 5 35 15 31 10 -4 11 -9 4 -16z m54 -21 c0 -36
-12 -41 -13 -6 0 16 3 30 7 30 4 0 7 -11 6 -24z m921 2 c3 -4 12 -4 20 -1 19
7 18 -6 -7 -71 -21 -54 -22 -55 -58 -50 -20 3 -64 6 -99 6 -62 1 -63 1 -47 22
8 11 19 31 25 43 21 48 46 63 105 60 30 -2 57 -6 61 -9z m137 -23 c26 -4 47
-9 47 -11 0 -18 -57 -114 -68 -114 -21 0 -102 22 -102 28 0 3 8 30 17 59 14
46 20 53 38 49 11 -2 41 -8 68 -11z m-1082 -43 c-5 -10 -17 -24 -25 -32 -14
-10 -16 -10 -16 6 0 16 14 28 48 43 1 0 -2 -7 -7 -17z m29 -22 c0 -5 -5 -10
-11 -10 -5 0 -7 5 -4 10 3 6 8 10 11 10 2 0 4 -4 4 -10z m-10 -34 c-8 -8 -26
-17 -38 -21 -22 -6 -23 -5 -13 14 8 13 22 21 38 21 24 0 25 -2 13 -14z m789
-20 c7 -8 8 -16 4 -19 -17 -10 -117 -6 -132 6 -9 7 -12 8 -8 1 9 -16 -46 -26
-55 -11 -13 21 -9 26 30 30 91 9 150 7 161 -7z m-725 -3 c4 -4 19 -7 34 -8 20
0 27 -5 27 -20 0 -16 -6 -19 -27 -17 -22 3 -28 -1 -27 -15 0 -10 3 -13 6 -5 2
6 8 10 13 7 12 -7 -4 -60 -18 -59 -7 1 -22 2 -34 3 -21 1 -21 1 -2 16 19 14
19 14 -1 15 -18 1 -18 2 3 10 25 11 30 45 6 54 -8 3 -12 10 -9 16 7 12 19 13
29 3z m-64 -27 c0 -8 -9 -16 -20 -19 -11 -3 -20 -4 -20 -2 0 2 -3 10 -6 18 -3
10 1 17 13 19 23 6 33 0 33 -16z m226 10 c27 -2 62 -4 77 -5 16 0 26 -5 22
-11 -4 -6 10 -9 37 -8 33 2 42 0 40 -11 -2 -11 0 -12 10 -4 19 15 80 15 71 0
-4 -8 -1 -7 9 1 10 8 19 9 22 3 3 -5 16 -7 29 -3 20 5 21 4 7 -12 -12 -16 -25
-17 -105 -11 -49 4 -109 8 -132 10 -23 2 -48 7 -55 11 -6 4 -30 7 -51 5 -29
-1 -37 1 -31 11 6 10 4 10 -9 -1 -15 -12 -17 -11 -17 12 0 18 4 25 13 21 8 -3
36 -6 63 -8z m-181 -26 c3 -5 1 -10 -4 -10 -6 0 -11 5 -11 10 0 6 2 10 4 10 3
0 8 -4 11 -10z m595 0 c0 -5 -5 -10 -11 -10 -5 0 -7 5 -4 10 3 6 8 10 11 10 2
0 4 -4 4 -10z m-645 -48 c1 -12 -4 -22 -11 -22 -6 0 -11 11 -10 25 1 30 19 28
21 -3z m127 6 c-6 -6 -15 -8 -19 -4 -4 4 -1 11 7 16 19 12 27 3 12 -12z m85 8
c10 -9 -8 -26 -30 -27 -17 -1 -18 -2 -4 -6 17 -4 21 -13 18 -43 -1 -13 15 -16
99 -15 74 0 100 3 100 12 0 7 4 13 10 13 5 0 7 -6 4 -14 -4 -10 6 -15 40 -17
83 -7 301 -3 324 5 15 6 22 5 22 -3 0 -7 -4 -10 -9 -6 -5 3 -12 1 -15 -4 -4
-5 7 -7 24 -5 17 3 30 1 30 -5 0 -6 -16 -10 -35 -9 -19 1 -35 4 -35 7 0 3
-201 5 -446 4 -385 -1 -444 0 -428 12 22 17 38 19 29 5 -3 -5 -1 -10 4 -10 6
0 11 5 11 11 0 8 4 8 15 -1 20 -17 38 -4 25 20 -12 22 -5 28 33 28 15 0 27 -6
27 -13 0 -16 -25 -37 -33 -28 -4 3 -7 1 -7 -5 0 -18 38 -9 43 10 5 19 47 26
47 7 0 -6 -8 -8 -18 -5 -12 4 -19 1 -19 -7 0 -16 55 -14 71 4 8 9 7 11 -6 6
-22 -8 -23 6 -3 23 8 7 12 16 9 21 -3 5 2 9 12 9 13 0 14 -3 5 -14 -18 -21 0
-51 32 -52 15 -1 27 3 27 8 0 5 -7 8 -16 6 -10 -2 -19 4 -21 12 -4 13 -3 13 6
0 8 -11 11 -12 11 -2 0 7 5 10 10 7 6 -3 10 -1 10 4 0 6 -8 11 -18 11 -17 0
-19 6 -13 51 1 7 50 3 58 -5z m140 -6 c12 0 29 -7 37 -16 15 -14 16 -14 16 2
0 19 13 11 16 -9 1 -7 -7 -14 -17 -14 -11 -1 -19 1 -19 5 0 4 -19 6 -42 6 -24
-1 -47 1 -53 4 -5 3 -24 5 -42 3 -27 -2 -32 1 -27 13 5 13 17 15 58 11 28 -2
61 -4 73 -5z m229 -5 c14 -13 12 -15 -19 -15 -20 0 -42 -3 -51 -6 -9 -3 -16
-1 -16 5 0 6 3 10 8 10 26 -4 62 3 57 11 -9 15 4 12 21 -5z m-672 -4 c3 -5 -1
-11 -9 -15 -15 -6 -29 7 -18 18 9 9 21 8 27 -3z m576 -15 c0 -19 -14 -28 -34
-20 -25 10 -19 34 9 34 15 0 25 -6 25 -14z m858 -17 c12 0 9 -3 -7 -10 -14 -6
-21 -15 -17 -24 3 -8 1 -17 -5 -20 -5 -4 -9 -3 -8 2 3 20 -2 34 -11 28 -5 -3
-10 -1 -10 5 0 7 7 10 15 7 8 -4 17 -2 20 3 4 6 -4 10 -17 11 -22 0 -22 1 -3
8 11 5 22 4 23 0 2 -5 11 -9 20 -10z m-1078 1 c0 -5 -7 -7 -16 -3 -10 4 -17
-1 -21 -16 -3 -11 -9 -18 -14 -15 -13 8 14 44 33 44 10 0 18 -4 18 -10z m39
-31 c1 -3 -14 -5 -31 -4 -41 3 -40 3 -33 15 4 7 13 7 26 0 16 -9 19 -7 20 12
0 22 1 22 9 3 5 -11 9 -23 9 -26z m57 20 c6 -5 15 -5 20 -1 4 4 2 -2 -6 -12
-13 -17 -15 -17 -18 -3 -4 18 -32 24 -32 6 0 -5 5 -7 10 -4 6 3 10 1 10 -4 0
-14 -13 -14 -28 1 -20 20 -14 37 11 31 12 -3 27 -10 33 -14z m-425 -11 c22
-25 24 -33 7 -21 -7 4 -17 8 -22 8 -5 0 -10 8 -12 18 -3 23 5 22 27 -5z m930
-1 c9 -21 9 -21 -5 -4 -12 15 -18 16 -35 8 -16 -9 -19 -9 -16 2 9 21 44 18 56
-6z m194 13 c3 -5 1 -10 -4 -10 -6 0 -11 5 -11 10 0 6 2 10 4 10 3 0 8 -4 11
-10z m228 -43 c3 -8 -1 -14 -9 -14 -15 0 -18 9 -7 20 9 9 10 9 16 -6z m107 9
c0 -2 -7 -7 -16 -10 -8 -3 -12 -2 -9 4 6 10 25 14 25 6z m-137 -73 c-3 -7 -8
-13 -12 -13 -4 0 -8 6 -8 13 0 8 6 14 13 14 7 0 10 -6 7 -14z"/>
<path d="M1880 2511 c0 -6 5 -13 10 -16 6 -3 10 1 10 9 0 9 -4 16 -10 16 -5 0
-10 -4 -10 -9z"/>
<path d="M1895 2300 c-3 -5 -1 -10 4 -10 6 0 11 5 11 10 0 6 -2 10 -4 10 -3 0
-8 -4 -11 -10z"/>
<path d="M1800 2250 c0 -6 7 -10 15 -10 8 0 15 2 15 4 0 2 -7 6 -15 10 -8 3
-15 1 -15 -4z"/>
<path d="M1222 2949 c-41 -30 -52 -57 -19 -51 15 2 21 -22 32 -138 8 -86 17
-140 24 -144 3 -2 21 2 39 10 30 12 33 18 32 51 -3 65 0 107 7 99 4 -3 8 -14
9 -24 5 -47 15 -78 29 -88 8 -6 15 -19 15 -28 0 -16 2 -16 15 -2 9 8 22 13 30
10 8 -4 15 -2 15 4 0 6 8 8 19 5 10 -3 22 1 26 7 5 9 1 10 -15 5 -17 -6 -21
-4 -14 6 6 11 5 12 -7 3 -8 -6 -24 -14 -37 -17 -19 -4 -21 -3 -11 9 6 8 18 14
25 14 8 0 14 7 14 16 0 11 6 14 20 9 15 -5 18 -3 14 9 -3 9 -10 13 -15 10 -6
-3 -7 5 -3 20 5 22 3 26 -15 26 -12 0 -22 7 -22 15 -1 8 -2 18 -3 23 -1 4 -5
24 -9 45 -8 36 -18 43 -57 37 -8 -1 -23 -9 -32 -17 -10 -9 -18 -14 -19 -12 0
2 -2 15 -5 29 -17 106 -16 105 -82 59z"/>
<path d="M3858 2906 c-15 -11 -15 -14 -3 -27 13 -13 5 -25 -65 -99 -56 -58
-88 -84 -105 -85 -30 -1 -53 -21 -39 -34 5 -5 46 -26 92 -46 134 -58 218 -49
300 33 62 62 65 140 5 194 -19 17 -145 78 -160 78 -5 0 -16 -6 -25 -14z m138
-130 c7 -31 -20 -89 -56 -120 -25 -21 -34 -22 -79 -15 -89 14 -89 16 -4 106
76 82 76 82 104 67 16 -8 31 -25 35 -38z"/>
<path d="M2659 2805 c-1 -5 -3 -17 -3 -25 -1 -8 -8 -14 -16 -12 -12 3 -13 1
-2 -9 17 -18 15 -34 -3 -19 -8 7 -15 20 -15 29 0 13 -2 13 -9 2 -6 -9 -11 -10
-15 -2 -4 6 -12 11 -18 11 -7 0 -6 -6 2 -15 7 -8 19 -15 27 -15 8 0 12 -4 9
-9 -3 -5 1 -14 9 -21 8 -7 12 -17 8 -23 -3 -6 -1 -7 5 -3 7 4 12 3 12 -3 0 -6
7 -8 15 -5 14 6 13 8 -2 19 -14 10 -15 16 -5 27 6 8 9 18 5 21 -3 4 -1 7 6 7
7 0 10 -10 7 -25 -3 -15 0 -24 7 -22 7 1 11 -4 9 -11 -1 -8 2 -11 8 -7 5 3 10
2 10 -3 0 -6 7 -12 15 -16 21 -8 19 0 -7 24 -12 11 -18 23 -15 27 4 3 7 1 7
-6 0 -7 4 -10 10 -6 5 3 -5 19 -22 35 -31 30 -19 43 13 14 10 -9 23 -13 29 -9
14 8 -15 31 -45 37 -11 1 -23 8 -27 13 -5 7 -8 7 -9 0z"/>
<path d="M1100 2779 c-45 -28 -69 -56 -76 -88 -3 -14 -7 -31 -9 -38 -2 -6 0
-27 5 -44 7 -24 6 -35 -3 -41 -18 -12 -27 -10 -27 7 0 25 -34 125 -42 125 -9
0 -62 -28 -99 -53 -64 -43 -72 -180 -12 -227 19 -15 29 -17 53 -9 15 6 36 19
46 30 9 10 24 19 33 19 25 1 60 32 64 57 5 32 11 35 41 23 34 -12 82 6 119 46
31 33 43 74 26 85 -14 8 -49 -10 -49 -26 0 -23 -26 -46 -43 -40 -18 7 -37 63
-32 92 2 10 4 22 4 27 1 5 9 2 19 -7 24 -22 31 -21 58 4 24 22 22 45 -4 67
-21 17 -31 15 -72 -9z m-197 -203 c5 -15 6 -44 2 -64 l-8 -37 -13 30 c-17 39
-18 108 -2 103 6 -2 16 -17 21 -32z"/>
<path d="M2862 2762 c-7 -9 -10 -11 -7 -4 10 21 -6 13 -27 -13 -11 -14 -25
-25 -32 -25 -11 0 -46 -34 -46 -45 0 -3 13 1 30 10 43 22 70 16 70 -17 0 -9
-3 -10 -8 -2 -5 8 -18 8 -47 -1 l-40 -13 47 -1 c38 -1 50 -6 68 -28 22 -28 46
-38 56 -22 7 12 34 12 34 -1 0 -5 -7 -7 -15 -4 -8 4 -15 2 -15 -4 0 -8 45 -22
73 -22 14 0 -2 15 -16 15 -7 0 -11 8 -11 18 1 9 -2 14 -7 11 -5 -3 -9 0 -9 5
0 6 7 11 15 11 22 0 19 8 -15 37 -17 13 -28 29 -24 34 3 5 -1 9 -8 10 -7 0
-21 2 -31 4 -9 2 -15 0 -12 -4 2 -5 -9 -8 -26 -7 l-30 1 26 23 c15 12 30 20
35 17 4 -3 11 3 14 12 4 10 4 14 0 10 -4 -4 -12 -3 -18 3 -8 6 -16 3 -24 -8z
m22 -89 c-18 -14 -18 -14 1 -11 11 2 22 6 25 10 8 10 52 -30 45 -42 -5 -8 -11
-7 -21 1 -8 6 -14 8 -14 3 0 -4 -5 -3 -12 4 -7 7 -23 12 -35 12 -20 0 -22 3
-14 18 6 10 18 19 27 19 15 0 14 -2 -2 -14z"/>
<path d="M2800 2755 c-7 -8 -8 -15 -2 -15 5 0 15 7 22 15 7 8 8 15 2 15 -5 0
-15 -7 -22 -15z"/>
<path d="M2758 2752 c-10 -2 -18 -8 -18 -13 0 -13 27 -11 35 2 9 13 4 16 -17
11z"/>
<path d="M1617 2743 c-4 -3 -7 -11 -7 -17 0 -6 5 -5 12 2 6 6 9 14 7 17 -3 3
-9 2 -12 -2z"/>
<path d="M2520 2720 c-12 -7 -10 -9 7 -7 12 0 19 5 17 9 -6 10 -6 10 -24 -2z"/>
<path d="M2465 2710 c-31 -7 -22 -17 22 -23 12 -2 26 -6 29 -10 4 -4 20 -7 36
-7 17 0 27 -4 23 -10 -7 -11 2 -12 29 -1 17 6 16 9 -10 18 -16 6 -46 14 -67
18 -21 3 -35 10 -32 16 4 5 5 8 3 8 -2 -1 -16 -5 -33 -9z"/>
<path d="M2574 2713 c4 -4 16 -8 28 -10 12 -2 19 -1 16 2 -3 3 -16 8 -28 10
-12 2 -20 1 -16 -2z"/>
<path d="M630 2630 c-114 -79 -149 -118 -96 -108 15 3 32 -1 43 -11 10 -9 33
-27 51 -40 31 -22 49 -51 57 -94 2 -9 7 -21 10 -27 3 -5 -1 -20 -10 -34 -11
-16 -12 -26 -6 -31 9 -5 49 19 143 86 5 3 6 13 2 23 -5 13 -9 14 -20 5 -18
-15 -18 -14 -43 45 -25 58 -29 191 -7 221 13 18 11 46 -3 45 -3 -1 -58 -37
-121 -80z m50 -50 c0 -34 -6 -37 -32 -14 -17 16 -17 18 0 30 26 20 32 17 32
-16z"/>
<path d="M3049 2697 c6 -8 7 -18 3 -22 -4 -5 -2 -5 4 -2 7 4 10 -6 10 -28 -1
-19 -5 -35 -10 -35 -6 0 -6 -4 0 -10 7 -7 22 -6 47 5 22 9 37 11 37 5 0 -5 -6
-10 -14 -10 -8 0 -14 -8 -13 -19 1 -12 6 -17 15 -14 10 5 11 8 2 13 -9 5 -6
10 9 15 17 5 19 10 11 26 -6 11 -8 23 -6 28 7 11 -22 23 -35 15 -5 -3 -9 2 -9
10 0 8 -4 18 -10 21 -7 4 -7 -3 0 -20 6 -15 8 -31 4 -36 -3 -5 0 -9 6 -9 6 0
8 -4 5 -10 -11 -18 -26 -10 -24 13 3 35 -12 77 -28 77 -12 0 -13 -3 -4 -13z
m81 -63 c0 -8 -4 -12 -10 -9 -5 3 -10 10 -10 16 0 5 5 9 10 9 6 0 10 -7 10
-16z"/>
<path d="M2966 2685 c10 -8 24 -14 29 -14 6 0 1 6 -9 14 -11 8 -24 15 -30 15
-5 0 -1 -7 10 -15z"/>
<path d="M3141 2687 c-10 -13 -9 -16 7 -21 18 -6 20 -11 23 -61 2 -31 7 -32
18 -2 5 13 5 27 -1 34 -5 7 -6 18 -2 24 4 8 3 9 -5 5 -6 -4 -14 1 -19 14 -7
19 -10 20 -21 7z"/>
<path d="M2630 2670 c0 -4 13 -10 29 -12 17 -2 28 -1 26 3 -7 10 -55 18 -55 9z"/>
<path d="M2550 2650 c0 -5 5 -10 11 -10 5 0 7 5 4 10 -3 6 -8 10 -11 10 -2 0
-4 -4 -4 -10z"/>
<path d="M2715 2647 c-29 -17 -22 -65 9 -63 13 0 23 8 23 18 1 10 -4 15 -12
12 -18 -7 -13 25 6 37 20 13 -2 9 -26 -4z"/>
<path d="M3010 2652 c0 -4 10 -13 23 -21 22 -14 22 -14 3 8 -20 22 -26 25 -26
13z"/>
<path d="M1525 2640 c-3 -5 -2 -10 4 -10 5 0 13 5 16 10 3 6 2 10 -4 10 -5 0
-13 -4 -16 -10z"/>
<path d="M2514 2643 c3 -4 -6 -13 -21 -20 -27 -12 -26 -12 22 -11 57 2 75 6
75 19 0 5 -14 6 -32 2 -22 -4 -29 -3 -24 5 4 7 0 12 -10 12 -10 0 -14 -3 -10
-7z"/>
<path d="M4124 2637 c-117 -39 -178 -156 -85 -165 22 -2 35 -11 43 -28 14 -31
54 -36 108 -14 31 13 38 28 20 46 -8 8 -1 19 22 36 18 14 44 36 58 48 24 21
25 22 6 36 -11 8 -24 14 -30 14 -5 0 -18 8 -28 17 -22 20 -70 24 -114 10z m70
-55 c11 -19 -38 -57 -87 -66 -45 -8 -33 32 18 62 23 13 62 16 69 4z"/>
<path d="M1493 2634 c3 -6 0 -20 -8 -30 -20 -26 -19 -29 11 -32 26 -2 62 23
50 36 -4 3 -10 2 -14 -4 -7 -11 -42 -27 -42 -19 0 2 7 10 15 18 13 13 12 17
-2 29 -9 7 -14 8 -10 2z"/>
<path d="M2600 2630 c0 -5 7 -7 15 -4 8 4 15 8 15 10 0 2 -7 4 -15 4 -8 0 -15
-4 -15 -10z"/>
<path d="M2992 2619 c2 -6 7 -10 11 -10 4 1 20 -10 35 -24 29 -27 38 -30 47
-15 3 5 0 7 -7 5 -8 -3 -27 8 -43 25 -29 30 -50 39 -43 19z"/>
<path d="M3200 2595 c0 -2 13 -8 29 -13 22 -8 31 -7 34 2 3 8 -7 12 -29 13
-19 0 -34 -1 -34 -2z"/>
<path d="M3263 2569 c-6 -6 -37 -11 -67 -11 -31 0 -58 -4 -61 -8 -5 -7 -3 -8
78 -13 54 -3 62 1 58 26 -1 5 3 6 8 2 6 -3 8 -12 5 -19 -4 -10 2 -12 23 -8 15
3 22 7 15 10 -6 2 -10 8 -6 13 3 5 1 9 -5 9 -5 0 -15 2 -23 5 -7 3 -19 0 -25
-6z"/>
<path d="M3100 2546 c0 -2 8 -10 18 -17 15 -13 16 -12 3 4 -13 16 -21 21 -21
13z"/>
<path d="M4313 2543 c-16 -6 -17 -43 -2 -43 11 0 -41 -101 -67 -131 -17 -19
-44 -20 -62 -2 -19 18 -39 16 -63 -6 -14 -13 -19 -26 -14 -40 9 -29 63 -28
189 5 147 39 213 77 204 121 -8 41 -88 16 -88 -27 0 -10 -13 -21 -35 -28 l-36
-10 25 43 c48 80 49 93 16 110 -30 15 -45 17 -67 8z"/>
<path d="M3048 2533 c7 -3 16 -2 19 1 4 3 -2 6 -13 5 -11 0 -14 -3 -6 -6z"/>
<path d="M3243 2509 c15 -11 27 -25 27 -31 0 -6 -6 -6 -15 2 -8 7 -15 9 -15 5
0 -5 -8 -1 -17 7 -10 9 -31 18 -48 20 -16 3 -24 3 -17 1 6 -3 12 -9 12 -14 0
-5 9 -9 20 -9 18 0 25 -10 21 -32 0 -5 4 -8 9 -8 6 0 10 -14 10 -31 0 -18 4
-28 10 -24 6 4 7 11 4 17 -4 7 -2 8 5 4 6 -4 9 -12 6 -17 -4 -5 -1 -9 4 -9 14
0 14 27 1 35 -5 3 -10 16 -10 27 0 12 3 18 7 15 3 -4 13 -1 21 6 9 6 13 8 10
2 -3 -5 -2 -19 3 -30 6 -17 8 -15 8 12 1 25 -6 35 -33 52 -43 27 -59 27 -23 0z
m7 -35 c0 -8 -19 -13 -24 -6 -3 5 1 9 9 9 8 0 15 -2 15 -3z"/>
<path d="M3079 2507 c-9 -7 -14 -18 -12 -25 3 -8 -1 -10 -14 -5 -16 6 -16 5
-5 -10 8 -9 10 -22 6 -28 -5 -8 -3 -9 6 -4 10 6 12 4 6 -11 -7 -18 -6 -18 11
-1 15 15 16 19 4 27 -11 6 -12 12 -4 22 9 12 25 48 20 48 -1 0 -9 -6 -18 -13z"/>
<path d="M3125 2475 c1 -13 -2 -23 -7 -22 -6 1 -14 -8 -19 -20 -5 -14 -5 -23
1 -23 6 0 10 5 10 11 0 6 7 8 17 5 10 -4 14 -4 10 0 -4 4 -2 13 4 21 10 11 14
10 26 -7 8 -11 24 -25 36 -31 21 -12 21 -11 7 10 -8 12 -19 22 -24 21 -5 -1
-12 4 -17 12 -5 7 -13 14 -19 14 -23 3 -24 5 -12 13 11 7 11 9 -1 14 -11 4
-14 -1 -12 -18z"/>
<path d="M2436 2454 c-4 -9 -4 -19 -1 -22 3 -3 5 0 5 7 0 7 4 9 10 6 6 -3 7 1
4 9 -8 20 -10 20 -18 0z"/>
<path d="M2975 2450 c-3 -5 -1 -10 4 -10 6 0 11 5 11 10 0 6 -2 10 -4 10 -3 0
-8 -4 -11 -10z"/>
<path d="M1645 2440 c3 -5 11 -10 16 -10 6 0 7 5 4 10 -3 6 -11 10 -16 10 -6
0 -7 -4 -4 -10z"/>
<path d="M2966 2415 c-9 -26 -7 -32 5 -12 6 10 9 21 6 23 -2 3 -7 -2 -11 -11z"/>
<path d="M1190 2417 c0 -2 6 -10 14 -16 11 -9 16 -9 22 1 4 7 4 10 -1 6 -4 -4
-14 -3 -22 3 -7 6 -13 9 -13 6z"/>
<path d="M1478 2403 c7 -3 16 -2 19 1 4 3 -2 6 -13 5 -11 0 -14 -3 -6 -6z"/>
<path d="M1517 2400 c18 -20 43 -22 35 -2 -4 11 -7 12 -10 4 -3 -10 -7 -10
-20 0 -14 10 -15 10 -5 -2z"/>
<path d="M1571 2394 c0 -11 3 -14 6 -6 3 7 2 16 -1 19 -3 4 -6 -2 -5 -13z"/>
<path d="M3609 2375 c-4 -3 -35 -10 -70 -15 -35 -6 -75 -12 -89 -15 -64 -15
-100 -17 -100 -6 0 6 -5 11 -11 11 -6 0 -8 -9 -4 -21 6 -19 5 -20 -17 -8 -14
7 -18 14 -10 17 6 2 12 8 12 13 0 6 -9 5 -21 -2 -17 -9 -23 -8 -30 2 -7 11 -9
11 -9 1 0 -21 44 -59 68 -57 12 1 22 -4 22 -11 0 -7 5 -16 12 -20 8 -5 9 0 6
14 -4 12 -3 22 0 23 20 3 156 8 292 12 115 4 163 2 187 -8 30 -13 43 -11 43 6
0 9 -66 29 -165 49 -94 19 -110 21 -116 15z"/>
<path d="M2810 2360 c0 -5 9 -8 20 -7 21 1 18 10 -5 13 -8 1 -15 -2 -15 -6z"/>
<path d="M3205 2351 c-3 -5 -1 -12 5 -16 5 -3 10 1 10 9 0 18 -6 21 -15 7z"/>
<path d="M1270 2301 c0 -4 14 -7 32 -5 45 6 48 14 5 14 -20 0 -37 -4 -37 -9z"/>
<path d="M1355 2300 c3 -5 8 -10 11 -10 2 0 4 5 4 10 0 6 -5 10 -11 10 -5 0
-7 -4 -4 -10z"/>
<path d="M1388 2298 c5 -5 16 -8 23 -6 8 3 3 7 -10 11 -17 4 -21 3 -13 -5z"/>
<path d="M1448 2293 c12 -2 30 -2 40 0 9 3 -1 5 -23 4 -22 0 -30 -2 -17 -4z"/>
<path d="M1514 2293 c4 -5 32 -11 53 -12 7 -1 10 -8 6 -18 -5 -15 -3 -14 11 2
17 19 17 19 13 -11 -2 -22 1 -31 10 -30 21 3 28 17 13 26 -11 7 -12 10 -2 10
7 0 10 5 7 10 -3 6 -2 10 4 10 5 0 12 -8 14 -17 4 -17 5 -17 6 0 1 24 21 11
21 -14 0 -10 7 -19 15 -19 8 0 15 2 15 5 0 10 -24 55 -29 55 -88 5 -161 6
-157 3z"/>
<path d="M2939 2273 c-13 -16 -12 -17 4 -4 16 13 21 21 13 21 -2 0 -10 -8 -17
-17z"/>
<path d="M3346 2188 c3 -5 10 -6 15 -3 13 9 11 12 -6 12 -8 0 -12 -4 -9 -9z"/>
<path d="M1531 2164 c0 -11 3 -14 6 -6 3 7 2 16 -1 19 -3 4 -6 -2 -5 -13z"/>
<path d="M3305 2164 c-11 -12 -13 -20 -6 -27 8 -8 15 -7 24 2 10 11 10 13 0 7
-16 -9 -17 6 -1 22 7 7 9 12 6 12 -4 0 -14 -7 -23 -16z"/>
<path d="M1467 2159 c7 -7 15 -10 18 -7 3 3 -2 9 -12 12 -14 6 -15 5 -6 -5z"/>
<path d="M1550 2161 c0 -4 22 -7 48 -7 27 -1 54 -4 60 -8 7 -4 12 -2 12 6 0 9
-18 13 -60 14 -33 1 -60 -1 -60 -5z"/>
<path d="M3345 2160 c4 -6 2 -17 -4 -24 -9 -11 -6 -12 16 -8 16 3 22 7 16 9
-7 3 -13 11 -13 19 0 8 -5 14 -11 14 -5 0 -7 -5 -4 -10z"/>
<path d="M2959 2139 c14 -5 28 -6 33 -1 4 4 -7 9 -25 9 -30 2 -31 2 -8 -8z"/>
<path d="M3287 2119 c7 -7 15 -10 18 -7 3 3 -2 9 -12 12 -14 6 -15 5 -6 -5z"/>
<path d="M3210 2061 c16 -33 34 -62 40 -66 15 -10 12 5 -6 22 -9 10 -13 25
-10 39 7 26 -2 56 -15 49 -4 -3 -6 -13 -3 -23 5 -15 5 -15 -6 1 -6 9 -8 22 -5
27 3 6 -1 10 -10 10 -12 0 -10 -11 15 -59z"/>
<path d="M3328 2098 c14 -14 54 -19 46 -6 -4 5 -12 7 -20 4 -8 -3 -14 -1 -14
4 0 6 -5 10 -12 10 -9 0 -9 -3 0 -12z"/>
<path d="M3437 2103 c-10 -9 -9 -23 1 -23 5 0 9 7 9 15 0 17 -1 18 -10 8z"/>
<path d="M3347 2050 c23 -27 96 -29 91 -3 -2 13 -15 18 -55 20 -52 3 -52 3
-36 -17z"/>
<path d="M1376 2018 c3 -5 10 -6 15 -3 13 9 11 12 -6 12 -8 0 -12 -4 -9 -9z"/>
<path d="M1438 2023 c6 -2 18 -2 25 0 6 3 1 5 -13 5 -14 0 -19 -2 -12 -5z"/>
<path d="M3320 1981 c0 -5 23 -9 50 -8 28 0 48 2 45 5 -9 9 -95 12 -95 3z"/>
<path d="M1390 1940 c0 -5 5 -10 11 -10 5 0 7 5 4 10 -3 6 -8 10 -11 10 -2 0
-4 -4 -4 -10z"/>
<path d="M1437 1936 c4 -13 3 -17 -5 -12 -6 3 -14 1 -18 -6 -4 -7 -4 -10 1 -6
4 4 14 0 22 -10 12 -16 13 -16 6 2 -4 13 -3 17 5 12 6 -3 14 -1 18 6 4 7 4 10
-1 6 -4 -4 -14 0 -22 10 -12 16 -13 16 -6 -2z"/>
<path d="M1482 1916 c-12 -18 -22 -36 -22 -42 0 -5 9 6 20 24 17 28 23 32 36
21 10 -8 18 -9 25 -2 7 7 4 15 -8 24 -16 13 -17 12 -4 -3 8 -11 9 -18 3 -18
-6 0 -15 7 -19 15 -7 11 -13 7 -31 -19z"/>
<path d="M3121 1922 c-6 -2 -11 -9 -11 -14 0 -6 3 -8 7 -5 3 4 12 2 19 -4 7
-5 15 -6 18 -1 3 5 31 7 63 5 32 -1 89 -4 126 -6 68 -4 71 7 7 18 -18 3 -37 8
-41 11 -4 2 -10 0 -14 -6 -4 -7 -12 -7 -23 -1 -9 5 -23 6 -32 1 -13 -7 -55 -7
-55 0 0 4 -54 5 -64 2z"/>
<path d="M1260 1912 c0 -6 -9 -9 -20 -7 -13 2 -18 0 -14 -7 4 -5 0 -15 -7 -20
-11 -8 -10 -9 3 -4 10 3 22 -2 27 -12 6 -10 11 -12 11 -4 0 14 21 12 35 -5 11
-13 95 -26 95 -15 0 4 -19 8 -42 9 -41 3 -56 8 -46 18 10 10 48 14 48 5 0 -9
86 -8 95 2 3 2 -6 10 -20 16 -18 8 -26 8 -31 0 -4 -7 -3 -8 4 -4 7 4 12 2 12
-3 0 -12 -23 -15 -33 -4 -4 3 -2 12 4 19 7 8 6 14 -2 20 -7 4 -9 3 -6 -3 4 -6
0 -16 -7 -22 -10 -8 -16 -9 -21 -2 -4 7 -14 5 -30 -5 -18 -12 -24 -12 -27 -2
-4 10 -8 11 -20 1 -15 -13 -28 -8 -28 9 0 5 4 7 9 3 11 -6 26 13 17 22 -3 4
-6 1 -6 -5z"/>
<path d="M2998 1904 c-22 -12 -21 -13 13 -11 20 1 36 7 36 13 0 14 -20 14 -49
-2z"/>
<path d="M3060 1912 c0 -5 9 -12 21 -15 13 -3 19 -1 16 6 -5 15 -37 22 -37 9z"/>
<path d="M1489 1888 c-11 -20 -10 -21 3 -11 8 7 18 10 22 6 4 -4 4 0 0 10 -8
22 -11 22 -25 -5z"/>
<path d="M1541 1901 c-9 -6 -10 -11 -2 -15 6 -4 11 -2 11 3 0 6 4 11 10 11 5
0 7 -8 4 -17 -5 -14 -4 -15 4 -4 5 7 16 10 23 7 8 -4 5 0 -5 8 -23 18 -26 19
-45 7z"/>
<path d="M1715 1900 c-3 -5 3 -10 15 -10 13 0 19 -4 14 -12 -4 -7 -3 -8 4 -4
16 10 15 14 -7 26 -13 7 -22 7 -26 0z"/>
<path d="M2955 1890 c-3 -5 -1 -10 4 -10 6 0 11 5 11 10 0 6 -2 10 -4 10 -3 0
-8 -4 -11 -10z"/>
<path d="M1625 1880 c-3 -5 7 -9 22 -9 16 0 39 -2 52 -5 13 -3 21 -2 17 1 -4
4 -12 8 -19 9 -7 1 -24 4 -39 7 -15 3 -30 2 -33 -3z"/>
<path d="M2989 1878 c-20 -8 -26 -28 -8 -28 5 0 8 4 4 10 -3 6 18 8 55 7 33
-2 60 1 60 5 0 4 -6 8 -12 9 -63 4 -82 3 -99 -3z"/>
<path d="M1797 1859 c7 -7 15 -10 18 -7 3 3 -2 9 -12 12 -14 6 -15 5 -6 -5z"/>
<path d="M2375 1860 c3 -5 8 -10 11 -10 2 0 4 5 4 10 0 6 -5 10 -11 10 -5 0
-7 -4 -4 -10z"/>
<path d="M3114 1862 c4 -3 14 -7 22 -8 9 -1 13 0 10 4 -4 3 -14 7 -22 8 -9 1
-13 0 -10 -4z"/>
<path d="M3210 1860 c0 -5 5 -10 11 -10 5 0 7 5 4 10 -3 6 -8 10 -11 10 -2 0
-4 -4 -4 -10z"/>
<path d="M1836 1847 c3 -10 9 -15 12 -12 3 3 0 11 -7 18 -10 9 -11 8 -5 -6z"/>
<path d="M1504 1833 c14 -17 23 -20 41 -13 16 6 25 5 29 -3 3 -9 5 -9 5 1 1 6
6 12 12 12 5 0 8 -4 5 -9 -7 -11 13 -9 32 2 6 5 12 5 12 0 0 -4 15 -9 33 -9
17 -1 66 -3 107 -4 41 -2 79 -8 83 -14 6 -7 7 -4 3 7 -4 14 -2 16 12 9 9 -5
34 -7 55 -5 23 3 37 0 37 -7 0 -6 5 -8 12 -4 8 5 2 12 -17 20 -21 8 -34 9 -42
2 -9 -7 -13 -7 -13 0 0 13 -49 22 -56 10 -3 -5 -13 -3 -22 4 -13 11 -15 11 -7
-2 6 -12 5 -12 -5 -3 -7 6 -19 9 -26 6 -8 -3 -14 1 -14 8 0 8 -6 5 -16 -7 -8
-10 -13 -14 -10 -7 4 6 2 14 -4 18 -5 3 -10 0 -10 -7 0 -10 -2 -10 -9 1 -5 8
-14 10 -22 5 -18 -10 -77 -12 -111 -3 -15 4 -30 3 -33 -2 -9 -14 -27 -11 -20
4 4 6 0 4 -8 -5 -13 -16 -15 -16 -32 0 -19 17 -19 16 -1 -5z"/>
<path d="M3016 1841 c-3 -5 2 -15 12 -22 15 -12 16 -12 5 2 -7 9 -10 19 -6 22
3 4 4 7 0 7 -3 0 -8 -4 -11 -9z"/>
<path d="M3164 1842 c3 -5 0 -13 -6 -15 -9 -4 -10 -6 -1 -6 17 -1 25 16 12 25
-7 4 -9 3 -5 -4z"/>
<path d="M3305 1840 c5 -8 42 -6 50 1 2 3 -8 5 -25 5 -16 0 -27 -3 -25 -6z"/>
<path d="M3390 1846 c0 -2 7 -7 16 -10 8 -3 12 -2 9 4 -6 10 -25 14 -25 6z"/>
<path d="M1403 1834 c3 -3 25 -8 48 -10 24 -2 40 -2 37 1 -3 3 -24 8 -48 10
-24 2 -40 2 -37 -1z"/>
<path d="M2355 1830 c-3 -5 -1 -10 4 -10 6 0 11 5 11 10 0 6 -2 10 -4 10 -3 0
-8 -4 -11 -10z"/>
<path d="M3224 1827 c-4 -6 -4 -9 1 -5 4 4 14 3 22 -4 7 -6 15 -9 18 -7 2 3
-4 10 -15 17 -15 9 -21 9 -26 -1z"/>
<path d="M2020 1818 c0 -5 -4 -6 -10 -3 -5 3 -7 0 -4 -9 5 -12 8 -12 25 2 23
20 23 19 4 19 -8 0 -15 -4 -15 -9z"/>
<path d="M2243 1823 c9 -2 23 -2 30 0 6 3 -1 5 -18 5 -16 0 -22 -2 -12 -5z"/>
<path d="M2296 1818 c3 -5 10 -6 15 -3 13 9 11 12 -6 12 -8 0 -12 -4 -9 -9z"/>
<path d="M2476 1821 c9 -9 34 -9 34 -1 0 5 -9 8 -20 7 -10 -1 -17 -3 -14 -6z"/>
<path d="M2810 1819 c0 -5 5 -7 10 -4 6 3 10 8 10 11 0 2 -4 4 -10 4 -5 0 -10
-5 -10 -11z"/>
<path d="M2975 1820 c3 -5 8 -10 11 -10 2 0 4 5 4 10 0 6 -5 10 -11 10 -5 0
-7 -4 -4 -10z"/>
<path d="M3055 1820 c3 -5 8 -10 11 -10 2 0 4 5 4 10 0 6 -5 10 -11 10 -5 0
-7 -4 -4 -10z"/>
<path d="M3326 1810 c-28 -10 -6 -17 29 -10 25 5 27 7 10 11 -11 3 -29 3 -39
-1z"/>
<path d="M3390 1811 c0 -5 9 -7 20 -4 11 3 20 7 20 9 0 2 -9 4 -20 4 -11 0
-20 -4 -20 -9z"/>
<path d="M2050 1799 c0 -5 5 -7 10 -4 6 3 10 8 10 11 0 2 -4 4 -10 4 -5 0 -10
-5 -10 -11z"/>
<path d="M2190 1799 c0 -5 5 -7 10 -4 6 3 10 8 10 11 0 2 -4 4 -10 4 -5 0 -10
-5 -10 -11z"/>
</g>
</svg>
