<?xml version="1.0" standalone="no"?>
<!DOCTYPE svg PUBLIC "-//W3C//DTD SVG 20010904//EN"
 "http://www.w3.org/TR/2001/REC-SVG-20010904/DTD/svg10.dtd">
<svg version="1.0" xmlns="http://www.w3.org/2000/svg"
 width="282.000000pt" height="282.000000pt" viewBox="0 0 282.000000 282.000000"
 preserveAspectRatio="xMidYMid meet">
<metadata>
Created by potrace 1.14, written by Peter Selinger 2001-2017
</metadata>
<g transform="translate(0.000000,282.000000) scale(0.100000,-0.100000)"
fill="#000000" stroke="none">
<path d="M1612 2033 c-9 -4 -10 -8 -2 -18 8 -10 6 -15 -9 -20 -12 -3 -26 -3
-33 0 -16 8 28 -30 60 -52 12 -9 26 -13 29 -9 4 4 -3 9 -15 13 -12 3 -22 12
-22 19 0 8 -5 14 -12 14 -6 0 -9 3 -5 6 3 4 24 -8 47 -26 22 -17 40 -27 40
-22 0 6 -12 20 -27 31 -18 13 -23 21 -13 21 13 0 13 1 0 10 -13 9 -13 10 1 10
19 0 59 -41 59 -60 0 -11 3 -11 11 -3 9 9 8 18 -5 38 -9 14 -21 23 -26 20 -6
-4 -10 -2 -10 3 0 7 -46 34 -53 31 -1 0 -8 -3 -15 -6z"/>
<path d="M395 2001 c-45 -11 -98 -61 -64 -61 5 0 7 5 4 11 -5 7 3 9 20 7 18
-2 31 -11 36 -25 7 -20 5 -22 -39 -19 -26 1 -63 -3 -82 -10 l-35 -12 30 -12
c17 -7 39 -16 50 -20 64 -24 79 -33 66 -38 -8 -3 -17 0 -19 7 -5 14 -32 15
-32 1 0 -5 5 -10 11 -10 5 0 7 -4 4 -10 -9 -15 -25 -12 -25 4 0 9 -7 12 -20 9
-15 -4 -20 0 -20 16 0 12 -6 21 -15 21 -9 0 -15 -9 -15 -24 0 -13 -7 -26 -15
-30 -8 -3 -15 -13 -15 -22 0 -10 -5 -14 -15 -11 -19 8 -32 -13 -14 -23 9 -6
20 2 36 23 l23 31 0 -87 0 -87 -45 -1 c-25 -1 -49 -3 -55 -4 -5 -1 -42 -3 -81
-4 -52 -1 -70 -4 -67 -13 3 -8 36 -16 89 -20 131 -11 160 -16 221 -38 64 -22
78 -24 78 -10 0 5 -18 14 -40 20 -44 12 -62 30 -30 30 12 0 19 4 15 9 -9 15
11 22 40 15 15 -4 30 -17 35 -30 5 -13 14 -24 20 -24 13 0 13 17 0 25 -5 3
-10 14 -10 23 0 14 3 14 19 -3 25 -26 34 -135 12 -143 -10 -3 -12 0 -7 13 5
14 3 16 -11 10 -40 -16 -88 -24 -97 -15 -7 7 2 10 21 10 18 0 35 5 39 12 5 8
-4 9 -34 4 -33 -5 -42 -3 -42 9 0 9 -6 12 -15 8 -9 -3 -13 -8 -11 -11 3 -3 -2
-11 -12 -18 -16 -12 -15 -13 7 -14 23 0 39 -14 62 -53 10 -18 7 -18 -53 -13
-120 11 -305 15 -263 7 22 -5 90 -11 150 -14 61 -3 111 -6 113 -6 1 -1 2 -17
2 -36 0 -19 5 -35 10 -35 6 0 10 16 10 35 0 47 29 50 31 3 l2 -33 7 35 7 35 3
-35 c2 -26 4 -29 7 -12 l4 22 19 -22 c24 -29 26 -11 3 22 -16 24 -16 24 0 11
14 -11 17 -11 17 0 0 24 20 -13 20 -38 0 -16 4 -21 15 -17 8 4 15 1 15 -5 0
-6 4 -11 10 -11 11 0 -9 51 -25 63 -6 4 -1 7 10 5 22 -3 57 -47 49 -60 -3 -4
0 -8 6 -8 7 0 10 13 8 33 -3 31 -2 32 37 33 51 1 56 -2 46 -29 -5 -14 -20 -24
-42 -29 -19 -4 20 -5 86 -2 66 4 137 5 158 5 22 -1 37 3 37 10 0 6 -8 9 -20 6
-22 -6 -59 17 -47 29 4 5 12 2 17 -6 7 -11 10 -11 10 -2 0 10 5 10 20 2 11 -6
20 -7 20 -3 0 5 20 7 45 5 25 -2 45 -9 45 -16 0 -12 -49 -14 -68 -2 -7 4 -12
1 -12 -7 0 -11 46 -15 253 -21 232 -6 303 -9 427 -20 l45 -4 -38 12 -38 12 38
18 c21 10 32 12 26 5 -18 -18 -16 -29 5 -29 11 0 19 -7 19 -16 0 -15 -10 -16
-75 -10 -41 3 -309 6 -595 6 -493 0 -519 1 -506 18 13 15 12 16 -4 3 -10 -8
-16 -24 -15 -39 l3 -25 -125 2 c-69 2 -123 1 -120 -2 4 -4 173 -16 232 -17 11
0 21 -12 26 -32 6 -18 17 -50 26 -70 l16 -38 -57 0 c-73 -1 -237 -11 -242 -16
-2 -2 65 -4 150 -4 l155 0 22 -45 c28 -58 28 -60 -7 -36 -35 25 -127 29 -157
6 -10 -8 -36 -15 -57 -15 l-39 0 32 -32 c36 -36 66 -38 172 -13 88 21 95 19
120 -18 l22 -34 305 2 c168 2 367 8 442 15 75 6 161 10 192 8 34 -3 58 0 61 6
3 8 7 8 13 0 4 -6 19 -14 33 -17 23 -6 24 -5 7 8 -17 12 -13 14 35 19 62 6
268 24 348 30 30 2 114 12 185 21 72 9 150 16 174 16 36 -1 42 1 32 12 -6 8
-8 16 -5 19 2 3 -2 8 -11 11 -8 4 -15 2 -15 -4 0 -6 -10 -9 -22 -7 -16 2 -32
20 -53 61 -39 74 -53 79 -349 117 -82 10 -154 24 -159 29 -7 7 1 9 24 5 55 -8
323 -31 330 -28 3 1 5 27 4 57 0 49 1 53 17 44 9 -6 15 -14 12 -18 -2 -4 1
-11 7 -15 8 -4 9 -3 5 4 -4 7 -1 13 6 13 7 1 24 3 38 4 29 3 50 -11 50 -32 0
-12 -11 -14 -50 -11 -49 3 -51 2 -45 -21 5 -18 3 -22 -9 -18 -9 4 -16 2 -16
-3 0 -6 16 -8 39 -4 36 6 40 4 64 -31 23 -34 25 -35 23 -12 0 14 -5 25 -10 24
-5 -1 -10 3 -13 9 -2 7 7 12 23 12 22 0 30 -9 50 -52 13 -28 24 -56 24 -62 0
-13 28 -39 35 -32 3 2 -8 35 -24 74 -16 38 -32 80 -36 94 -7 24 -7 24 9 5 15
-19 15 -19 16 13 0 22 5 32 15 32 17 0 20 16 5 25 -5 3 -15 15 -21 27 -7 13
-7 18 -1 14 6 -3 14 -1 18 6 4 7 4 10 -1 6 -4 -4 -15 -3 -25 2 -9 5 -29 11
-45 14 -39 7 -41 13 -8 20 21 5 48 -2 98 -26 44 -20 63 -33 53 -36 -39 -8 -14
-22 40 -22 46 0 63 4 77 20 18 20 17 20 -27 20 -45 0 -46 1 -50 34 l-4 33 96
7 c52 3 119 6 148 6 52 0 52 0 46 28 -4 15 -9 29 -11 32 -8 9 -89 -1 -175 -22
-49 -11 -97 -18 -109 -15 -12 3 -22 0 -25 -8 -3 -7 -14 -11 -24 -8 -16 4 -17
8 -7 24 13 20 5 35 -13 24 -9 -6 -9 -10 1 -17 11 -7 9 -8 -4 -4 -67 22 -100
14 -90 -22 3 -15 -4 -18 -49 -21 -73 -5 -99 -5 -128 3 -21 5 -20 4 4 -8 29
-13 29 -14 8 -25 -11 -6 -37 -11 -57 -11 -19 0 -38 -6 -40 -12 -10 -27 -10
-61 1 -65 6 -2 9 10 6 31 l-4 34 49 5 c26 2 62 9 80 15 25 8 34 7 43 -3 10
-12 5 -13 -24 -8 -24 4 -36 2 -36 -6 0 -7 5 -9 10 -6 6 3 10 1 10 -5 0 -6 5
-8 12 -4 7 4 8 3 4 -4 -5 -9 -13 -9 -26 -2 -22 12 -41 13 -38 3 2 -5 -1 -8 -7
-8 -5 0 -9 3 -7 8 1 4 -7 7 -18 7 -11 0 -20 -5 -20 -11 0 -5 -5 -7 -12 -3 -7
4 -8 3 -4 -4 4 -6 14 -8 22 -5 9 3 5 -6 -10 -21 -27 -30 -44 -30 -104 5 -19
11 -39 16 -45 13 -7 -4 -9 -4 -5 1 9 9 -34 45 -54 45 -10 0 -9 -3 2 -11 11 -8
4 -9 -27 -7 -31 3 -44 -1 -48 -12 -6 -13 -8 -13 -16 3 -6 9 -20 17 -32 17 -13
0 -27 4 -32 9 -12 11 -63 17 -253 31 -79 5 -148 12 -153 15 -13 9 -11 26 4 24
26 -3 47 1 47 11 0 14 -27 12 -33 -2 -3 -8 -6 -6 -6 5 -1 12 7 17 24 17 14 0
25 -4 25 -10 0 -16 27 -12 34 5 4 12 26 15 109 15 62 0 107 -4 114 -11 14 -14
70 17 79 44 3 11 12 16 22 13 9 -2 43 -10 75 -17 41 -9 56 -16 53 -26 -10 -25
12 -13 38 22 28 37 76 132 76 152 0 13 -100 53 -134 53 -24 0 -81 39 -58 40 7
0 12 8 10 18 -2 11 2 16 12 13 8 -2 30 -4 47 -5 18 -1 35 -5 39 -8 3 -4 12 -4
20 -1 8 3 32 -2 54 -11 47 -18 74 -21 65 -5 -4 6 -13 8 -21 5 -8 -3 -14 -1
-14 4 0 6 -9 10 -19 10 -11 0 -23 5 -26 10 -3 6 3 10 14 10 12 0 21 5 21 10 0
6 -6 10 -12 9 -7 -1 -26 3 -41 9 -16 7 -32 12 -37 12 -20 0 -18 18 4 28 20 9
30 6 65 -20 23 -16 38 -35 34 -41 -4 -6 0 -8 10 -4 9 3 18 1 20 -6 3 -9 8 -9
18 1 8 7 9 12 2 12 -12 0 -84 66 -99 90 -12 21 -65 44 -58 26 3 -9 -6 -12 -36
-12 -22 1 -40 4 -40 9 0 4 4 7 9 7 5 0 16 6 23 14 8 7 28 21 46 30 39 20 42
29 6 16 -23 -9 -25 -8 -20 7 5 13 -1 11 -21 -8 -15 -14 -35 -29 -43 -33 -29
-13 -56 -31 -80 -53 -28 -27 -22 -28 26 -8 37 15 103 13 133 -5 9 -5 11 -10 4
-10 -6 0 -19 -7 -28 -16 -14 -15 -17 -15 -28 -1 -10 13 -21 14 -77 3 -57 -11
-61 -13 -32 -18 18 -2 32 0 32 6 0 6 4 6 11 -1 8 -8 20 -8 35 -3 15 6 24 6 24
0 0 -5 15 -14 33 -19 17 -5 24 -10 15 -10 -11 -1 -15 -6 -12 -15 4 -10 0 -13
-13 -11 -10 2 -18 4 -18 5 0 8 -46 7 -51 -1 -4 -7 -15 -2 -30 12 -13 12 -24
18 -24 12 0 -6 5 -13 11 -15 17 -6 19 -68 2 -68 -7 0 -13 5 -13 11 0 5 -4 8
-9 4 -5 -3 -12 -1 -16 5 -4 6 -11 8 -16 5 -5 -4 -9 -1 -9 4 0 6 7 11 15 11 8
0 15 5 15 10 0 6 -7 10 -15 10 -8 0 -15 9 -15 20 0 11 -7 20 -15 20 -19 0 -21
-76 -2 -83 6 -2 9 -7 6 -11 -3 -3 -25 0 -49 7 l-44 12 29 29 c28 28 28 28 4
21 -13 -3 -32 -9 -42 -12 -9 -2 -15 -9 -12 -14 4 -5 0 -9 -8 -9 -8 0 -17 -8
-19 -18 -4 -13 -22 -21 -68 -30 -67 -12 -94 -27 -72 -40 9 -6 4 -21 -18 -58
-26 -41 -27 -44 -6 -19 14 16 31 42 37 57 6 15 19 30 28 32 26 9 111 17 111
12 0 -11 -63 -112 -83 -133 -16 -18 -31 -23 -73 -23 -66 0 -108 -15 -100 -35
3 -8 3 -15 0 -15 -21 0 -180 45 -185 53 -4 5 -18 7 -32 3 -14 -3 -61 -1 -104
5 -85 13 -111 16 -160 18 l-33 1 0 56 c0 44 3 54 13 46 6 -5 36 -13 65 -17 48
-6 55 -11 78 -47 14 -22 28 -38 31 -35 2 3 -3 17 -13 31 -21 33 -16 38 27 26
41 -12 89 -4 106 19 15 20 17 34 2 25 -7 -4 -10 5 -7 27 l3 32 -105 28 c-187
49 -202 58 -162 102 16 19 16 20 0 14 -10 -4 -18 -3 -18 2 0 10 -55 9 -66 -2
-15 -14 -35 -6 -64 26 -16 17 -30 37 -30 42 0 14 -67 11 -103 -4 -36 -14 -37
-14 -37 3 0 16 -43 47 -62 45 -7 -1 -27 -4 -43 -8z m58 -111 c-6 -6 -62 61
-63 75 0 6 16 -8 34 -30 19 -22 32 -42 29 -45z m58 39 c2 6 18 12 34 14 17 3
22 2 12 0 -11 -3 -16 -10 -13 -19 3 -8 2 -13 -3 -10 -5 3 -11 -3 -14 -14 -3
-12 -14 -20 -27 -20 -18 0 -21 4 -16 24 4 15 0 28 -9 36 -8 7 -15 17 -15 23 0
5 11 -2 24 -18 13 -15 25 -22 27 -16z m-56 10 c11 -17 -1 -21 -15 -4 -8 9 -8
15 -2 15 6 0 14 -5 17 -11z m159 -25 c5 -14 4 -15 -9 -4 -17 14 -19 20 -6 20
5 0 12 -7 15 -16z m56 -37 c0 -14 3 -17 13 -10 11 10 87 25 87 19 0 -2 -18
-15 -41 -30 -34 -23 -43 -25 -56 -14 -15 12 -15 11 -2 -9 15 -26 36 -23 82 9
23 16 27 17 27 4 0 -10 -9 -16 -22 -16 -22 -1 -22 -1 -3 -12 11 -6 21 -12 23
-13 1 -1 -1 -10 -4 -19 -5 -14 -9 -15 -15 -4 -9 14 -50 18 -60 5 -6 -9 -48 4
-48 16 -1 4 -1 15 -1 25 0 14 -2 15 -10 2 -7 -10 -10 -11 -10 -2 0 7 7 15 15
18 19 8 19 28 1 44 -8 6 -12 19 -9 27 5 14 8 13 20 -3 7 -10 13 -27 13 -37z
m-259 3 c1 -8 1 -21 0 -27 -1 -8 9 -13 24 -13 16 0 25 -6 25 -15 0 -8 -5 -15
-11 -15 -7 0 -22 -11 -34 -25 -20 -21 -24 -22 -29 -8 -6 15 8 32 27 33 18 0
-39 60 -57 60 -12 1 -32 7 -46 15 -24 14 -22 15 37 13 48 -2 63 -7 64 -18z
m164 -20 c-3 -5 -15 -6 -27 -2 -14 3 -19 2 -14 -6 5 -8 0 -12 -13 -12 -11 0
-23 5 -27 12 -4 6 -3 8 3 5 6 -4 22 2 34 12 17 14 28 16 36 9 7 -6 11 -14 8
-18z m40 11 c3 -5 1 -12 -4 -15 -5 -3 -11 1 -15 9 -6 16 9 21 19 6z m-38 -55
c-3 -8 2 -16 14 -19 10 -3 17 -1 13 4 -8 14 6 11 21 -5 20 -20 9 -25 -32 -15
-20 4 -40 6 -44 3 -4 -2 -11 1 -15 7 -4 7 -3 9 4 5 6 -3 13 3 17 14 3 11 11
20 17 20 5 0 8 -6 5 -14z m-72 -6 c3 -5 1 -10 -4 -10 -6 0 -11 5 -11 10 0 6 2
10 4 10 3 0 8 -4 11 -10z m-144 -30 c10 -6 19 -16 19 -22 0 -7 -5 -7 -14 2
-13 10 -13 8 -4 -12 13 -27 65 -36 75 -13 8 24 23 17 23 -10 0 -19 -5 -25 -20
-25 -14 0 -20 -6 -18 -17 2 -15 -4 -18 -37 -16 -34 1 -37 -1 -22 -11 21 -16
12 -26 -24 -26 -29 0 -29 0 -45 91 -5 31 -2 39 17 53 28 19 25 19 50 6z m87
-4 c-10 -7 -18 -18 -18 -25 0 -6 -5 -11 -11 -11 -5 0 -7 6 -3 13 15 25 27 37
38 37 6 0 3 -7 -6 -14z m72 4 c0 -5 -5 -10 -11 -10 -5 0 -7 5 -4 10 3 6 8 10
11 10 2 0 4 -4 4 -10z m201 -10 c18 0 28 -4 24 -10 -3 -5 1 -10 9 -10 9 0 16
-7 16 -16 0 -11 -6 -14 -22 -8 -13 4 -31 7 -40 6 -10 0 -18 5 -18 13 0 7 -6
15 -14 18 -12 5 -12 2 0 -21 7 -15 11 -35 8 -44 -3 -10 -1 -25 4 -34 7 -13 11
-9 16 20 6 30 10 35 24 27 9 -5 22 -9 27 -10 10 -1 10 -7 7 -75 -2 -29 -5 -33
-22 -29 -12 3 -28 -1 -38 -10 -29 -25 -56 -29 -69 -9 -12 20 -6 72 8 72 5 0 9
5 9 11 0 5 -4 7 -10 4 -5 -3 -10 -1 -10 4 0 16 20 13 26 -4 4 -8 10 -13 15
-10 13 9 -1 34 -24 41 -18 6 -18 7 -4 16 21 11 22 29 2 22 -20 -8 -19 5 2 28
9 10 23 16 31 13 7 -3 27 -5 43 -5z m-132 -14 c10 -11 10 -20 1 -36 -6 -12
-14 -19 -18 -16 -3 4 0 12 6 18 18 18 15 28 -9 28 -11 0 -17 5 -14 10 9 14 21
12 34 -4z m-59 -16 c0 -13 -5 -18 -15 -14 -8 4 -15 12 -15 20 0 8 7 14 15 14
8 0 15 -9 15 -20z m1216 -26 l32 -6 -26 -79 c-25 -75 -28 -79 -52 -75 -14 3
-69 7 -122 8 -54 1 -98 4 -98 6 0 2 18 33 40 69 22 37 40 70 40 75 0 9 138 10
186 2z m-1226 -16 c0 -6 3 -8 6 -5 4 3 15 2 26 -4 14 -8 24 -7 35 2 13 11 15
10 11 -6 -2 -11 -10 -20 -18 -21 -8 -1 -26 -6 -40 -11 -14 -6 -28 -9 -32 -6
-12 6 -10 63 2 63 6 0 10 -5 10 -12z m1358 -12 c40 -8 76 -16 78 -19 6 -6 -63
-147 -72 -147 -27 0 -134 35 -134 44 0 20 41 136 48 136 4 0 40 -6 80 -14z
m-1463 -46 c3 -5 2 -10 -4 -10 -5 0 -13 5 -16 10 -3 6 -2 10 4 10 5 0 13 -4
16 -10z m45 -22 c0 -6 -7 -5 -15 2 -8 7 -15 17 -15 22 0 6 7 5 15 -2 8 -7 15
-17 15 -22z m120 19 c0 -1 -16 -17 -35 -36 l-35 -33 0 30 c0 24 5 32 23 35 31
6 47 7 47 4z m20 -41 c0 -11 -19 -15 -25 -6 -3 5 1 10 9 10 9 0 16 -2 16 -4z
m-26 -22 c26 -10 18 -32 -11 -36 -16 -2 -27 -7 -25 -13 2 -5 12 -9 23 -8 10 2
20 -2 21 -7 4 -29 1 -33 -24 -36 -28 -3 -31 1 -40 58 -2 9 6 24 17 32 24 18
20 17 39 10z m128 -48 c41 -1 43 -2 46 -33 2 -24 -1 -33 -12 -33 -8 0 -18 5
-21 10 -3 6 -16 10 -29 10 -30 0 -61 34 -52 57 6 14 9 15 16 3 5 -8 26 -14 52
-14z m698 -17 c0 -4 -15 -9 -32 -12 -33 -5 -67 18 -51 34 24 23 83 7 83 -22z
m158 29 c27 -27 12 -35 -66 -37 -75 -2 -79 -1 -90 24 l-12 25 78 0 c47 0 83
-5 90 -12z m151 -4 c2 -2 -1 -9 -7 -16 -22 -27 -132 -7 -132 24 0 9 129 1 139
-8z m-759 -30 c19 -3 37 -9 41 -15 3 -6 17 -9 30 -7 27 3 212 -11 244 -18 20
-5 33 -44 14 -44 -5 0 -9 3 -9 8 0 4 -60 8 -133 9 -72 2 -159 7 -192 13 -33 5
-85 12 -115 14 -30 3 -56 6 -57 6 -2 0 -3 12 -3 26 l0 26 73 -7 c39 -4 88 -9
107 -11z m-275 -34 c15 -6 11 -8 -17 -7 -21 1 -38 5 -38 10 0 9 29 8 55 -3z
m1709 -31 c-2 -3 7 -11 19 -17 40 -19 57 -22 58 -9 1 13 16 -30 18 -51 1 -8
-5 -12 -11 -9 -7 2 -12 10 -10 16 1 7 -3 11 -10 10 -31 -4 -49 2 -42 13 4 7 3
8 -5 4 -22 -14 -47 3 -45 32 2 42 3 44 18 30 8 -7 12 -16 10 -19z m-2011 -4
c-3 -9 1 -15 10 -15 22 0 29 -16 8 -17 -19 -2 -45 33 -36 48 9 14 25 1 18 -16z
m212 5 c3 -5 -1 -10 -9 -10 -8 0 -18 5 -21 10 -3 6 1 10 9 10 8 0 18 -4 21
-10z m115 -7 c0 -9 -13 -13 -39 -13 -40 0 -63 14 -39 23 26 10 78 4 78 -10z
m40 -13 c-16 -10 -30 -4 -30 11 0 6 5 7 10 4 6 -3 10 -1 10 6 0 10 3 10 12 1
10 -10 10 -15 -2 -22z m100 0 c0 -16 -6 -18 -37 -13 -46 7 -45 7 -38 25 9 22
75 11 75 -12z m78 -3 c3 -15 -2 -18 -30 -15 -22 2 -34 9 -36 21 -3 15 2 18 30
15 22 -2 34 -9 36 -21z m122 -8 c0 -15 -7 -19 -39 -19 -51 0 -71 8 -71 29 0
13 9 15 55 13 46 -3 55 -7 55 -23z m-577 7 c6 -16 -11 -26 -31 -18 -9 3 -10 8
-1 18 15 18 25 18 32 0z m125 -13 c2 -8 -5 -13 -17 -13 -12 0 -21 6 -21 16 0
18 31 15 38 -3z m492 -14 c0 -5 -7 -9 -15 -9 -9 0 -15 9 -15 21 0 18 2 19 15
9 8 -7 15 -16 15 -21z m20 9 c0 -19 -2 -20 -10 -8 -13 19 -13 30 0 30 6 0 10
-10 10 -22z m100 0 c0 -11 -4 -17 -9 -13 -5 3 -12 1 -16 -5 -3 -5 -17 -10 -31
-10 -19 0 -24 5 -24 25 0 23 4 25 40 23 32 -1 40 -5 40 -20z m138 7 c3 -3 -26
-5 -64 -5 -45 0 -64 3 -55 9 14 9 110 6 119 -4z m-640 -14 c3 -10 -1 -12 -19
-8 -13 4 -34 7 -46 7 -13 0 -23 4 -23 8 0 14 83 8 88 -7z m42 -1 c0 -5 -4 -10
-9 -10 -6 0 -13 5 -16 10 -3 6 1 10 9 10 9 0 16 -4 16 -10z m80 0 c21 -7 19
-8 -17 -9 -24 -1 -43 4 -43 9 0 12 24 12 60 0z m90 -9 c0 -5 -11 -8 -25 -8
-14 0 -28 3 -31 8 -3 5 9 9 25 9 17 0 31 -4 31 -9z m93 -8 c-13 -2 -35 -2 -50
0 -16 2 -5 4 22 4 28 0 40 -2 28 -4z m643 -17 c2 -13 1 -14 -3 -1 -4 15 -7 15
-29 0 -13 -8 -24 -11 -24 -6 0 12 32 31 45 27 6 -1 11 -10 11 -20z m-976 -22
c0 -24 -17 -15 -22 11 -4 20 -3 23 8 14 8 -6 14 -18 14 -25z m70 21 c0 -8 -4
-16 -10 -16 -36 -5 -45 -2 -48 14 -3 13 3 17 27 17 21 0 31 -5 31 -15z m27
-17 c-3 -7 -5 -2 -5 12 0 14 2 19 5 13 2 -7 2 -19 0 -25z m1573 -12 c0 -6 -7
0 -16 12 -8 12 -20 19 -26 16 -7 -5 -8 -2 -4 5 6 9 13 8 27 -5 10 -9 19 -22
19 -28z m-1383 12 c-3 -8 -6 -5 -6 6 -1 11 2 17 5 13 3 -3 4 -12 1 -19z m33 7
c0 -8 -4 -15 -10 -15 -5 0 -10 7 -10 15 0 8 5 15 10 15 6 0 10 -7 10 -15z m17
-7 c-3 -8 -6 -5 -6 6 -1 11 2 17 5 13 3 -3 4 -12 1 -19z m33 1 c0 -5 -4 -9
-10 -9 -5 0 -10 7 -10 16 0 8 5 12 10 9 6 -3 10 -10 10 -16z m49 1 c-13 -9
-39 -2 -39 10 0 4 12 5 26 2 17 -3 22 -7 13 -12z m1165 -14 c-3 -9 -10 -16
-15 -16 -5 0 -4 9 3 20 14 22 21 20 12 -4z m-1624 4 c0 -5 -5 -10 -11 -10 -5
0 -7 5 -4 10 3 6 8 10 11 10 2 0 4 -4 4 -10z m1030 -25 c0 -11 12 -15 49 -15
36 0 51 -4 55 -16 5 -13 1 -15 -21 -10 -86 21 -103 28 -103 41 0 8 5 15 10 15
6 0 10 -7 10 -15z m152 -25 c4 -23 1 -30 -13 -30 -19 0 -36 33 -20 38 6 2 11
10 11 18 0 26 18 5 22 -26z m478 30 c-20 -13 -33 -13 -25 0 3 6 14 10 23 10
15 0 15 -2 2 -10z m80 -11 c0 -6 -4 -7 -10 -4 -5 3 -10 11 -10 16 0 6 5 7 10
4 6 -3 10 -11 10 -16z m-242 -1 c7 -7 12 -20 12 -30 0 -19 -7 -16 -59 18 -1 2
0 7 4 13 8 14 28 14 43 -1z m212 -15 c0 -22 -2 -25 -10 -13 -13 20 -13 40 0
40 6 0 10 -12 10 -27z m-300 -7 c0 -6 3 -20 6 -31 5 -18 1 -20 -48 -17 -29 2
-57 8 -63 14 -7 7 4 9 32 6 l41 -3 -13 25 c-13 26 -13 26 16 22 16 -2 29 -9
29 -16z m-332 -13 c34 -9 62 -21 62 -25 0 -4 -17 -1 -38 6 -20 7 -56 17 -80
21 -23 4 -42 11 -42 17 0 6 8 8 18 5 9 -3 45 -14 80 -24z m390 -3 c39 -24 41
-35 4 -38 -22 -2 -30 4 -39 28 -13 35 -9 37 35 10z m-205 -17 c-13 -2 -33 -2
-45 0 -13 2 -3 4 22 4 25 0 35 -2 23 -4z m412 -13 c3 -5 -1 -10 -9 -10 -9 0
-16 5 -16 10 0 6 4 10 9 10 6 0 13 -4 16 -10z"/>
<path d="M316 1745 c-9 -26 -7 -32 5 -12 6 10 9 21 6 23 -2 3 -7 -2 -11 -11z"/>
<path d="M2378 1413 c7 -3 16 -2 19 1 4 3 -2 6 -13 5 -11 0 -14 -3 -6 -6z"/>
<path d="M2080 1256 c0 -2 7 -9 15 -16 9 -7 15 -8 15 -2 0 5 -7 12 -15 16 -8
3 -15 4 -15 2z"/>
<path d="M1528 1983 c17 -9 32 -23 32 -30 0 -7 4 -13 8 -13 5 0 15 -11 22 -25
12 -22 40 -35 40 -19 0 25 -92 104 -120 103 -8 0 0 -8 18 -16z"/>
<path d="M1789 1984 c-12 -14 -11 -16 5 -13 11 2 21 10 24 17 5 17 -13 15 -29
-4z"/>
<path d="M1835 1990 c-3 -5 -2 -10 4 -10 5 0 13 5 16 10 3 6 2 10 -4 10 -5 0
-13 -4 -16 -10z"/>
<path d="M1745 1970 c-3 -5 -2 -10 4 -10 5 0 13 5 16 10 3 6 2 10 -4 10 -5 0
-13 -4 -16 -10z"/>
<path d="M1426 1928 c3 -5 16 -7 29 -5 37 5 37 12 0 13 -19 0 -32 -3 -29 -8z"/>
<path d="M1520 1919 c0 -5 9 -9 20 -9 11 0 20 2 20 4 0 2 -9 6 -20 9 -11 3
-20 1 -20 -4z"/>
<path d="M2090 1919 c0 -7 7 -21 17 -31 10 -12 12 -18 4 -18 -7 0 -9 -5 -5
-12 4 -7 7 -27 6 -44 -3 -33 12 -55 20 -31 7 19 1 79 -10 109 -12 29 -32 46
-32 27z"/>
<path d="M1344 1912 c3 -5 42 -17 87 -27 69 -16 78 -20 58 -28 -13 -5 -19 -11
-13 -13 6 -3 28 3 50 13 l39 17 -45 9 c-25 5 -63 15 -85 23 -44 15 -99 19 -91
6z"/>
<path d="M1671 1903 c7 -10 15 -20 16 -22 2 -2 3 3 3 11 0 9 -7 19 -16 22 -15
6 -15 4 -3 -11z"/>
<path d="M1980 1906 c0 -2 7 -9 15 -16 9 -7 15 -8 15 -2 0 5 -7 12 -15 16 -8
3 -15 4 -15 2z"/>
<path d="M2145 1876 c9 -13 13 -31 9 -42 -6 -14 -2 -13 13 5 l20 24 8 -29 c5
-16 7 -36 6 -44 -2 -11 0 -12 9 -4 7 7 8 19 2 35 -7 17 -6 28 4 37 12 11 15
10 21 -4 3 -9 6 -29 7 -45 1 -33 21 -39 29 -9 3 11 1 20 -5 20 -5 0 -6 5 -3
10 3 6 1 10 -5 10 -6 0 -8 5 -5 10 3 6 2 10 -3 10 -5 0 -12 9 -15 20 -3 12
-14 20 -26 20 -19 0 -20 -2 -10 -22 11 -21 11 -22 -4 -9 -11 9 -17 10 -17 2 0
-19 -18 -12 -25 9 -3 11 -11 20 -16 20 -5 0 -3 -11 6 -24z"/>
<path d="M2020 1886 c0 -9 64 -65 69 -61 2 2 -3 10 -11 17 -36 34 -58 51 -58
44z"/>
<path d="M1593 1863 c9 -2 23 -2 30 0 6 3 -1 5 -18 5 -16 0 -22 -2 -12 -5z"/>
<path d="M1433 1837 c-4 -7 -19 -18 -33 -25 -21 -10 -12 -11 59 -6 90 6 114
12 106 24 -3 4 -22 4 -42 -1 -57 -13 -73 -11 -67 6 7 18 -12 20 -23 2z"/>
<path d="M196 1828 c3 -4 9 -8 15 -8 5 0 9 4 9 8 0 5 -7 9 -15 9 -8 0 -12 -4
-9 -9z"/>
<path d="M175 1821 c5 -9 2 -18 -9 -27 -9 -6 -13 -15 -8 -18 5 -3 17 3 26 13
15 17 15 19 -1 32 -14 12 -16 12 -8 0z"/>
<path d="M2165 1810 c-3 -5 1 -10 10 -10 9 0 13 5 10 10 -3 6 -8 10 -10 10 -2
0 -7 -4 -10 -10z"/>
<path d="M1627 1783 c-10 -9 -9 -23 2 -23 5 0 11 7 15 15 5 15 -5 20 -17 8z"/>
<path d="M2070 1780 c0 -5 10 -15 23 -21 22 -12 22 -12 3 10 -21 23 -26 26
-26 11z"/>
<path d="M2170 1779 c0 -5 5 -7 10 -4 6 3 10 8 10 11 0 2 -4 4 -10 4 -5 0 -10
-5 -10 -11z"/>
<path d="M2285 1780 c-3 -5 -1 -10 4 -10 6 0 11 5 11 10 0 6 -2 10 -4 10 -3 0
-8 -4 -11 -10z"/>
<path d="M2315 1770 c-4 -6 5 -10 19 -10 14 0 26 5 26 10 0 6 -9 10 -19 10
-11 0 -23 -4 -26 -10z"/>
<path d="M2180 1755 c-7 -9 -8 -15 -2 -15 5 0 12 7 16 15 3 8 4 15 2 15 -2 0
-9 -7 -16 -15z"/>
<path d="M2373 1748 c3 -10 -11 -13 -54 -11 -33 0 -57 -2 -55 -6 3 -4 -9 -6
-27 -4 -25 3 -28 2 -16 -6 18 -11 62 -14 156 -11 58 2 61 3 50 21 -7 11 -18
17 -25 14 -7 -3 -10 0 -7 5 3 6 -1 10 -10 10 -10 0 -15 -6 -12 -12z"/>
<path d="M1987 1718 l-29 -10 25 -27 c14 -14 27 -39 30 -56 l4 -30 2 31 c1 28
5 33 36 38 20 4 33 11 31 15 -3 5 -18 6 -33 3 -21 -3 -25 -2 -17 7 6 7 21 13
33 14 29 2 27 14 -4 19 -14 3 -25 1 -25 -5 0 -6 -4 -6 -12 0 -9 7 -23 7 -41 1z"/>
<path d="M2175 1703 c6 -6 34 -23 63 -38 37 -20 56 -25 63 -18 7 7 0 14 -23
23 -18 7 -37 12 -41 11 -4 -1 -22 6 -40 15 -18 9 -27 12 -22 7z"/>
<path d="M1117 1693 c-12 -11 -8 -24 6 -17 6 4 -9 -13 -35 -38 -53 -50 -62
-68 -21 -41 38 25 112 98 90 90 -9 -3 -17 -2 -17 3 0 11 -13 13 -23 3z"/>
<path d="M2338 1671 c38 -33 41 -45 7 -37 -14 4 -25 2 -25 -4 0 -10 4 -12 41
-14 11 0 27 -10 36 -21 15 -19 15 -19 8 5 -4 14 -13 28 -19 32 -7 5 -4 8 8 8
16 0 16 2 -5 18 -64 46 -101 56 -51 13z"/>
<path d="M2111 1660 c-10 -5 -8 -9 4 -14 23 -8 35 -8 35 3 0 13 -25 20 -39 11z"/>
<path d="M2186 1631 c-4 -6 -4 -16 0 -23 4 -7 3 -8 -4 -4 -8 4 -16 -3 -22 -19
-12 -33 -12 -35 1 -35 5 0 7 5 4 10 -3 6 -1 10 5 10 6 0 8 5 4 13 -6 9 -4 9 8
-1 13 -11 16 -9 20 12 6 29 -6 54 -16 37z"/>
<path d="M2090 1626 c0 -2 7 -6 15 -10 8 -3 15 -1 15 4 0 6 -7 10 -15 10 -8 0
-15 -2 -15 -4z"/>
<path d="M2303 1612 c10 -10 17 -24 17 -30 0 -7 5 -12 10 -12 6 0 10 -4 10
-10 0 -14 -16 -12 -33 5 -8 8 -17 11 -21 8 -3 -4 -6 -1 -6 6 0 7 -4 10 -9 7
-5 -4 -12 0 -14 6 -4 10 -6 10 -6 0 -1 -7 10 -17 24 -24 13 -6 22 -15 18 -21
-3 -6 -1 -7 5 -3 7 4 12 2 12 -4 0 -6 4 -9 9 -6 5 3 14 -1 21 -10 11 -12 15
-12 21 -2 12 18 11 28 -2 28 -5 0 -7 -5 -3 -12 4 -7 3 -8 -4 -4 -15 9 -3 38
12 29 6 -3 -5 10 -23 30 -35 37 -69 54 -38 19z"/>
<path d="M1000 1602 c6 -13 14 -21 18 -18 3 4 -2 14 -12 24 -18 16 -18 16 -6
-6z"/>
<path d="M1124 1609 c-3 -5 -1 -9 5 -9 5 0 16 -3 25 -6 9 -3 16 -2 16 4 0 13
-38 23 -46 11z"/>
<path d="M2226 1605 c4 -8 8 -15 10 -15 2 0 4 7 4 15 0 8 -4 15 -10 15 -5 0
-7 -7 -4 -15z"/>
<path d="M2115 1595 c-20 -15 -20 -15 0 -8 18 6 19 5 6 -13 -14 -18 -14 -18 3
-2 25 22 17 44 -9 23z"/>
<path d="M360 1590 c0 -6 7 -10 15 -10 8 0 15 2 15 4 0 2 -7 6 -15 10 -8 3
-15 1 -15 -4z"/>
<path d="M1990 1558 c-36 -98 -34 -102 45 -111 28 -3 42 -3 33 -1 -10 3 -18 9
-18 13 0 5 30 0 67 -10 75 -21 92 -23 78 -11 -6 5 -44 17 -85 26 -41 10 -86
26 -99 37 -21 17 -22 22 -11 49 7 17 10 33 8 36 -3 3 -11 -10 -18 -28z"/>
<path d="M220 1530 c-11 -7 -7 -10 17 -10 17 0 35 5 38 10 8 13 -35 13 -55 0z"/>
<path d="M418 1533 c7 -3 16 -2 19 1 4 3 -2 6 -13 5 -11 0 -14 -3 -6 -6z"/>
<path d="M330 1520 c0 -5 4 -10 9 -10 6 0 13 5 16 10 3 6 -1 10 -9 10 -9 0
-16 -4 -16 -10z"/>
<path d="M1733 1493 c9 -2 23 -2 30 0 6 3 -1 5 -18 5 -16 0 -22 -2 -12 -5z"/>
<path d="M2293 1482 c-7 -4 -9 -13 -4 -21 6 -10 10 -9 15 5 8 20 4 25 -11 16z"/>
<path d="M2445 1469 c-11 -17 1 -21 15 -4 8 9 8 15 2 15 -6 0 -14 -5 -17 -11z"/>
<path d="M2260 1453 c5 -2 8 -9 4 -14 -3 -5 0 -9 6 -9 15 0 7 23 -8 26 -7 1
-8 0 -2 -3z"/>
<path d="M547 1346 c-4 -10 -1 -13 9 -9 15 6 19 23 5 23 -5 0 -11 -7 -14 -14z"/>
<path d="M2398 1343 c7 -3 16 -2 19 1 4 3 -2 6 -13 5 -11 0 -14 -3 -6 -6z"/>
<path d="M2400 1250 c0 -22 5 -40 10 -40 6 0 10 18 10 40 0 22 -4 40 -10 40
-5 0 -10 -18 -10 -40z"/>
<path d="M2467 1283 c-11 -10 -8 -73 3 -73 6 0 10 18 10 40 0 41 -2 45 -13 33z"/>
<path d="M73 1243 c9 -2 23 -2 30 0 6 3 -1 5 -18 5 -16 0 -22 -2 -12 -5z"/>
<path d="M2308 1138 c3 -15 2 -19 -7 -14 -6 4 -1 -13 11 -38 12 -25 26 -46 31
-46 4 0 1 10 -7 22 -11 15 -14 34 -10 60 5 30 3 38 -9 38 -11 0 -13 -6 -9 -22z"/>
<path d="M2461 1105 c19 -19 34 -25 72 -25 39 0 47 3 47 19 0 19 -39 31 -109
31 l-33 0 23 -25z"/>
<path d="M2437 1023 c-14 -13 -7 -25 11 -18 9 4 37 7 62 6 24 -1 42 1 38 4 -9
9 -103 16 -111 8z"/>
<path d="M2083 943 c9 -2 17 -9 17 -15 0 -9 168 -4 178 6 2 2 -20 7 -48 11
-34 5 -55 3 -65 -5 -11 -9 -22 -9 -46 -1 -18 6 -37 10 -43 10 -6 -1 -3 -3 7
-6z"/>
<path d="M2325 942 c-11 -2 -24 -8 -29 -12 -11 -11 169 -9 186 1 8 6 0 9 -22
9 -19 1 -53 2 -75 4 -22 1 -49 0 -60 -2z"/>
<path d="M2020 920 c-33 -7 -31 -7 18 -9 29 0 52 3 52 9 0 11 -17 11 -70 0z"/>
<path d="M460 916 c0 -2 7 -7 16 -10 8 -3 12 -2 9 4 -6 10 -25 14 -25 6z"/>
<path d="M1700 900 c0 -5 5 -10 11 -10 5 0 7 5 4 10 -3 6 -8 10 -11 10 -2 0
-4 -4 -4 -10z"/>
<path d="M386 889 c6 -10 54 -17 59 -9 3 4 -11 10 -29 12 -19 2 -33 1 -30 -3z"/>
<path d="M2010 890 c0 -6 34 -10 77 -10 42 0 74 3 70 6 -10 11 -147 14 -147 4z"/>
<path d="M523 833 c9 -2 23 -2 30 0 6 3 -1 5 -18 5 -16 0 -22 -2 -12 -5z"/>
<path d="M571 836 c2 -3 29 -7 59 -10 36 -3 48 -2 35 4 -20 9 -102 14 -94 6z"/>
<path d="M1123 823 c15 -2 37 -2 50 0 12 2 0 4 -28 4 -27 0 -38 -2 -22 -4z"/>
<path d="M1238 823 c7 -3 16 -2 19 1 4 3 -2 6 -13 5 -11 0 -14 -3 -6 -6z"/>
<path d="M1073 793 c9 -2 25 -2 35 0 9 3 1 5 -18 5 -19 0 -27 -2 -17 -5z"/>
</g>
</svg>
